<?xml version="1.0" encoding="utf-8"?>
<!-- Generator: Adobe Illustrator 23.0.1, SVG Export Plug-In . SVG Version: 6.00 Build 0)  -->
<svg version="1.1" id="Layer_1" xmlns="http://www.w3.org/2000/svg" xmlns:xlink="http://www.w3.org/1999/xlink" x="0px" y="0px"
	 viewBox="0 0 58 52" style="enable-background:new 0 0 58 52;" xml:space="preserve">
<style type="text/css">
	.st0{fill:#010101;}
</style>
<path class="st0" d="M58,16c0,6.6-5.4,12-12,12H2c-1.1,0-2-0.9-2-2s0.9-2,2-2h44c4.4,0,8-3.6,8-8s-3.6-8-8-8c-1.1,0-2-0.9-2-2
	s0.9-2,2-2C52.6,4,58,9.4,58,16z M2,18h22c5,0,9-4,9-9s-4-9-9-9c-1.1,0-2,0.9-2,2s0.9,2,2,2c2.8,0,5,2.2,5,5s-2.2,5-5,5H2
	c-1.1,0-2,0.9-2,2S0.9,18,2,18z M36,34H2c-1.1,0-2,0.9-2,2s0.9,2,2,2h34c2.8,0,5,2.2,5,5s-2.2,5-5,5c-1.1,0-2,0.9-2,2s0.9,2,2,2
	c5,0,9-4,9-9S41,34,36,34z"/>
</svg>
