<?xml version="1.0" encoding="utf-8"?>
<!-- Generator: Adobe Illustrator 23.0.1, SVG Export Plug-In . SVG Version: 6.00 Build 0)  -->
<svg version="1.1" id="Layer_1" xmlns="http://www.w3.org/2000/svg" xmlns:xlink="http://www.w3.org/1999/xlink" x="0px" y="0px"
	 viewBox="0 0 59 53.1" style="enable-background:new 0 0 59 53.1;" xml:space="preserve">
<style type="text/css">
	.st0{fill:#010101;}
</style>
<g>
	<circle class="st0" cx="17.2" cy="32.6" r="2.3"/>
	<circle class="st0" cx="41.8" cy="32.6" r="2.3"/>
	<path class="st0" d="M59,31.6c0-3.4-2.5-6.2-5.7-6.8v-1C53.3,10.7,42.6,0,29.5,0C16.4,0,5.7,10.7,5.7,23.8v1
		C2.5,25.4,0,28.2,0,31.6c0,3.4,2.5,6.3,5.8,6.8c0.5,5.2,2.9,9.1,7.2,11.5c3.8,2.1,9.2,3.2,16.6,3.2c7.3,0,12.7-1,16.6-3.2
		c4.3-2.4,6.7-6.3,7.2-11.5C56.5,37.9,59,35,59,31.6z M2.4,31.6c0-2,1.4-3.8,3.2-4.3v8.6C3.8,35.4,2.4,33.7,2.4,31.6z M50.8,36.5
		c0,5.4-2,9.1-6,11.3c-3.4,1.9-8.5,2.9-15.4,2.9s-11.9-0.9-15.4-2.9c-4-2.3-6-6-6-11.3V23.8c0-9.6,6.4-17.8,15.2-20.5
		c6.7,0.1,10.3,4.9,10.3,8.4c0,2.7-2.2,4.9-4.9,4.9c-2,0-3.6-1.6-3.6-3.6c0-1.5,1.2-2.7,2.7-2.7c0.7,0,1.2-0.5,1.2-1.2
		c0-0.7-0.5-1.2-1.2-1.2c-2.8,0-5.1,2.3-5.1,5.1c0,3.4,2.7,6.1,6.1,6.1c4,0,7.3-3.3,7.3-7.3c0-2.5-1.3-5.3-3.4-7.3
		c-0.9-0.8-1.8-1.5-2.9-2c11.6,0.2,21.1,9.7,21.1,21.4L50.8,36.5L50.8,36.5z M53.3,35.9v-8.6c1.9,0.5,3.2,2.3,3.2,4.3
		S55.1,35.4,53.3,35.9z"/>
	<path class="st0" d="M34.2,36c-2.6,2.6-6.8,2.6-9.4,0c-0.5-0.5-1.2-0.5-1.7,0c-0.5,0.5-0.5,1.2,0,1.7c1.8,1.8,4.1,2.7,6.4,2.7
		s4.7-0.9,6.4-2.7c0.5-0.5,0.5-1.2,0-1.7C35.4,35.5,34.7,35.5,34.2,36z"/>
</g>
</svg>
