<?xml version="1.0" encoding="utf-8"?>
<!-- Generator: Adobe Illustrator 23.0.1, SVG Export Plug-In . SVG Version: 6.00 Build 0)  -->
<svg version="1.1" id="Layer_1" xmlns="http://www.w3.org/2000/svg" xmlns:xlink="http://www.w3.org/1999/xlink" x="0px" y="0px"
	 viewBox="0 0 90.5 50" style="enable-background:new 0 0 90.5 50;" xml:space="preserve">
<style type="text/css">
	.st0{fill:#FFFFFF;}
</style>
<g>
	<g>
		<path class="st0" d="M88.5,4H2C0.9,4,0,3.1,0,2s0.9-2,2-2h86.5c1.1,0,2,0.9,2,2S89.6,4,88.5,4z"/>
	</g>
	<g>
		<path class="st0" d="M88.5,27H2c-1.1,0-2-0.9-2-2s0.9-2,2-2h86.5c1.1,0,2,0.9,2,2S89.6,27,88.5,27z"/>
	</g>
	<g>
		<path class="st0" d="M88.5,50H2c-1.1,0-2-0.9-2-2s0.9-2,2-2h86.5c1.1,0,2,0.9,2,2S89.6,50,88.5,50z"/>
	</g>
</g>
</svg>
