<?xml version="1.0" encoding="utf-8"?>
<!-- Generator: Adobe Illustrator 23.0.1, SVG Export Plug-In . SVG Version: 6.00 Build 0)  -->
<svg version="1.1" id="Layer_1" xmlns="http://www.w3.org/2000/svg" xmlns:xlink="http://www.w3.org/1999/xlink" x="0px" y="0px"
	 viewBox="0 0 26.4 27" style="enable-background:new 0 0 26.4 27;" xml:space="preserve">
<style type="text/css">
	.st0{fill:#010101;}
</style>
<g transform="translate(0,-952.36218)">
	<path class="st0" d="M19,952.4c0.3,0,0.6,0.3,0.6,0.6v3.8c1.1,0.3,1.8,1.2,1.8,2.4c0,1.3-1.1,2.5-2.5,2.5c-1.3,0-2.5-1.1-2.5-2.5
		c0-1.1,0.8-2.1,1.8-2.4V953C18.4,952.6,18.7,952.4,19,952.4z M7.3,952.4c0.3,0,0.6,0.3,0.6,0.6v3.8c1.1,0.3,1.8,1.2,1.8,2.4
		c0,1.3-1.1,2.5-2.5,2.5s-2.5-1.1-2.5-2.5c0-1.1,0.8-2.1,1.8-2.4V953C6.7,952.6,7,952.4,7.3,952.4z M23.3,954.2
		c1.7,0,3.1,1.4,3.1,3.1v19c0,1.7-1.4,3.1-3.1,3.1H3.1c-1.7,0-3.1-1.4-3.1-3.1v-19c0-1.7,1.4-3.1,3.1-3.1h1.8c0.3,0,0.6,0.3,0.6,0.6
		c0,0.3-0.3,0.6-0.6,0.6H3.1c-1,0-1.8,0.8-1.8,1.8v5.5h23.9v-5.5c0-1-0.8-1.8-1.8-1.8h-1.8c-0.3,0-0.6-0.3-0.6-0.6
		c0-0.3,0.3-0.6,0.6-0.6H23.3z M16.6,954.2c0.3,0,0.6,0.3,0.6,0.6s-0.3,0.6-0.6,0.6H9.8c-0.3,0-0.6-0.3-0.6-0.6s0.3-0.6,0.6-0.6
		H16.6z M19,957.9c-0.7,0-1.2,0.5-1.2,1.2c0,0.7,0.5,1.2,1.2,1.2c0.7,0,1.2-0.5,1.2-1.2C20.2,958.4,19.7,957.9,19,957.9z M7.3,957.9
		c-0.7,0-1.2,0.5-1.2,1.2c0,0.7,0.5,1.2,1.2,1.2s1.2-0.5,1.2-1.2C8.6,958.4,8,957.9,7.3,957.9z M25.1,964H1.2v12.3
		c0,1,0.8,1.8,1.8,1.8h20.2c1,0,1.8-0.8,1.8-1.8L25.1,964z"/>
</g>
</svg>
