<?xml version="1.0" encoding="utf-8"?>
<!-- Generator: Adobe Illustrator 23.0.1, SVG Export Plug-In . SVG Version: 6.00 Build 0)  -->
<svg version="1.1" id="Layer_1" xmlns="http://www.w3.org/2000/svg" xmlns:xlink="http://www.w3.org/1999/xlink" x="0px" y="0px"
	 viewBox="0 0 54.7 56" style="enable-background:new 0 0 54.7 56;" xml:space="preserve">
<style type="text/css">
	.st0{fill:#BCBCBC;}
</style>
<g transform="translate(0,-952.36218)">
	<g>
		<path class="st0" d="M39.4,952.4c0.7,0,1.3,0.6,1.3,1.3v7.8c2.2,0.6,3.8,2.6,3.8,4.9c0,2.8-2.3,5.1-5.1,5.1
			c-2.8,0-5.1-2.3-5.1-5.1c0-2.4,1.6-4.3,3.8-4.9v-7.8C38.2,952.9,38.7,952.4,39.4,952.4z M15.3,952.4c0.7,0,1.3,0.6,1.3,1.3v7.8
			c2.2,0.6,3.8,2.6,3.8,4.9c0,2.8-2.3,5.1-5.1,5.1s-5.1-2.3-5.1-5.1c0-2.4,1.6-4.3,3.8-4.9v-7.8C14,952.9,14.5,952.4,15.3,952.4z
			 M48.3,956.2c3.5,0,6.4,2.9,6.4,6.4v39.4c0,3.5-2.9,6.4-6.4,6.4h-42c-3.5,0-6.4-2.9-6.4-6.4v-39.4c0-3.5,2.9-6.4,6.4-6.4h3.8
			c0.7,0,1.3,0.6,1.3,1.3c0,0.7-0.6,1.3-1.3,1.3H6.4c-2.1,0-3.8,1.7-3.8,3.8V974h49.6v-11.4c0-2.1-1.7-3.8-3.8-3.8h-3.8
			c-0.7,0-1.3-0.6-1.3-1.3c0-0.7,0.6-1.3,1.3-1.3H48.3z M34.4,956.2c0.7,0,1.3,0.6,1.3,1.3c0,0.7-0.6,1.3-1.3,1.3h-14
			c-0.7,0-1.3-0.6-1.3-1.3c0-0.7,0.6-1.3,1.3-1.3H34.4z M39.4,963.8c-1.4,0-2.5,1.1-2.5,2.5c0,1.4,1.1,2.5,2.5,2.5s2.5-1.1,2.5-2.5
			C42,964.9,40.9,963.8,39.4,963.8z M15.3,963.8c-1.4,0-2.5,1.1-2.5,2.5c0,1.4,1.1,2.5,2.5,2.5s2.5-1.1,2.5-2.5
			C17.8,964.9,16.7,963.8,15.3,963.8z M52.2,976.5H2.5v25.4c0,2.1,1.7,3.8,3.8,3.8h42c2.1,0,3.8-1.7,3.8-3.8L52.2,976.5z"/>
	</g>
</g>
</svg>
