<?xml version="1.0" encoding="utf-8"?>
<!-- Generator: Adobe Illustrator 23.0.1, SVG Export Plug-In . SVG Version: 6.00 Build 0)  -->
<svg version="1.1" id="Layer_1" xmlns="http://www.w3.org/2000/svg" xmlns:xlink="http://www.w3.org/1999/xlink" x="0px" y="0px"
	 viewBox="0 0 64 50.9" style="enable-background:new 0 0 64 50.9;" xml:space="preserve">
<style type="text/css">
	.st0{fill:#010101;}
</style>
<path class="st0" d="M58.7,0H26.4c-1.3,0-2.6,0.5-3.6,1.5L1.7,21.1C0.6,22.1,0,23.5,0,25v12.6c0,7.4,6,13.3,13.4,13.3h45.4
	c2.9,0,5.3-2.4,5.3-5.3V5.3C64,2.4,61.6,0,58.7,0z M60,45.7c0,0.7-0.6,1.3-1.3,1.3H13.4c-5.2,0-9.3-4.2-9.4-9.3V25
	c0-0.4,0.1-0.7,0.4-0.9L25.5,4.3C25.7,4.1,26.1,4,26.4,4h32.4C59.4,4,60,4.6,60,5.3V45.7z M52,10H29c-0.5,0-1,0.2-1.4,0.5L11.5,25.7
	c-0.8,0.8-0.8,2-0.1,2.8c0.4,0.4,0.9,0.6,1.5,0.6H52c1.1,0,2-0.9,2-2V12C54,10.9,53.1,10,52,10z M50,25.1H17.9L29.8,14H50V25.1z
	 M49.8,35.1c0,1.1-0.9,2-2,2h-5.7c-1.1,0-2-0.9-2-2s0.9-2,2-2h5.7C48.9,33.1,49.8,34,49.8,35.1z"/>
</svg>
