<?xml version="1.0" encoding="utf-8"?>
<!-- Generator: Adobe Illustrator 23.0.1, SVG Export Plug-In . SVG Version: 6.00 Build 0)  -->
<svg version="1.1" id="Layer_1" xmlns="http://www.w3.org/2000/svg" xmlns:xlink="http://www.w3.org/1999/xlink" x="0px" y="0px"
	 viewBox="0 0 41.8 41.8" style="enable-background:new 0 0 41.8 41.8;" xml:space="preserve">
<style type="text/css">
	.st0{fill:#010101;}
</style>
<g>
	<path class="st0" d="M39.2,0c-1.4,0-2.6,1.2-2.6,2.6v15.8H23.5V2.6c0-1.4-1.2-2.6-2.6-2.6s-2.6,1.2-2.6,2.6v15.8H5.2V2.6
		C5.2,1.2,4,0,2.6,0S0,1.2,0,2.6v18.3c0,1.4,1.2,2.6,2.6,2.6h15.8v15.8c0,1.4,1.2,2.6,2.6,2.6s2.6-1.2,2.6-2.6V23.5h13.2v15.8
		c0,1.4,1.2,2.6,2.6,2.6c1.4,0,2.6-1.2,2.6-2.6V2.6C41.8,1.2,40.7,0,39.2,0z"/>
</g>
</svg>
