<?xml version="1.0" encoding="utf-8"?>
<!-- Generator: Adobe Illustrator 23.0.1, SVG Export Plug-In . SVG Version: 6.00 Build 0)  -->
<svg version="1.1" id="Layer_1" xmlns="http://www.w3.org/2000/svg" xmlns:xlink="http://www.w3.org/1999/xlink" x="0px" y="0px"
	 viewBox="0 0 28 28" style="enable-background:new 0 0 28 28;" xml:space="preserve">
<style type="text/css">
	.st0{fill:#010101;}
</style>
<g>
	<g>
		<g>
			<path class="st0" d="M23.3,14c0,0.5,0,0.9-0.1,1.4c0-0.1,0-0.2,0-0.2c-0.1,0.7-0.3,1.4-0.5,2c-0.1,0.2-0.1,0.3-0.2,0.5
				c-0.1,0.2,0.1-0.2,0-0.1c0,0,0,0.1,0,0.1c0,0.1-0.1,0.2-0.1,0.3c-0.1,0.3-0.3,0.6-0.5,0.9c-0.2,0.3-0.4,0.6-0.6,0.8
				c-0.1,0.1,0.1-0.2,0,0c0,0-0.1,0.1-0.1,0.1c-0.1,0.1-0.1,0.1-0.2,0.2c-0.1,0.1-0.2,0.3-0.4,0.4c-0.2,0.2-0.5,0.5-0.7,0.7
				c-0.1,0.1-0.2,0.2-0.4,0.3c0,0-0.2,0.1,0,0c0,0-0.1,0-0.1,0.1c-0.1,0.1-0.2,0.1-0.2,0.2c-0.3,0.2-0.7,0.4-1,0.6
				c-0.2,0.1-0.3,0.2-0.5,0.3c-0.1,0-0.2,0.1-0.3,0.1c-0.2,0.1,0.2-0.1,0,0c-0.1,0-0.1,0-0.2,0.1c-0.8,0.3-1.5,0.5-2.3,0.6
				c0.1,0,0.2,0,0.2,0c-0.9,0.1-1.8,0.1-2.8,0c0.1,0,0.2,0,0.2,0c-0.7-0.1-1.4-0.3-2-0.5c-0.2-0.1-0.3-0.1-0.5-0.2
				c-0.2-0.1,0.2,0.1,0.1,0c0,0-0.1,0-0.1,0c-0.1,0-0.2-0.1-0.3-0.1c-0.3-0.1-0.6-0.3-0.9-0.5c-0.3-0.2-0.6-0.4-0.8-0.6
				c-0.1-0.1,0.2,0.1,0,0c0,0-0.1-0.1-0.1-0.1c-0.1-0.1-0.1-0.1-0.2-0.2C8,21,7.8,20.9,7.7,20.7C7.5,20.5,7.2,20.3,7,20
				c-0.1-0.1-0.2-0.2-0.3-0.4c0,0-0.1-0.2,0,0c0,0,0-0.1-0.1-0.1c-0.1-0.1-0.1-0.2-0.2-0.2c-0.2-0.3-0.4-0.7-0.6-1
				c-0.1-0.2-0.2-0.3-0.3-0.5c0-0.1-0.1-0.2-0.1-0.3c-0.1-0.2,0.1,0.2,0,0c0-0.1,0-0.1-0.1-0.2c-0.3-0.8-0.5-1.5-0.6-2.3
				c0,0.1,0,0.2,0,0.2c-0.1-0.9-0.1-1.8,0-2.8c0,0.1,0,0.2,0,0.2c0.1-0.7,0.3-1.4,0.5-2c0.1-0.2,0.1-0.3,0.2-0.5
				c0.1-0.2-0.1,0.2,0,0.1c0,0,0-0.1,0-0.1c0-0.1,0.1-0.2,0.1-0.3C5.8,9.7,6,9.4,6.1,9.1c0.2-0.3,0.4-0.6,0.6-0.8
				c0.1-0.1-0.1,0.2,0,0c0,0,0.1-0.1,0.1-0.1C6.8,8.2,6.8,8.1,6.9,8C7,7.9,7.1,7.8,7.2,7.6C7.5,7.4,7.7,7.2,8,6.9
				c0.1-0.1,0.2-0.2,0.4-0.3c0,0,0.2-0.1,0,0c0,0,0.1,0,0.1-0.1c0.1-0.1,0.2-0.1,0.2-0.2C9,6.2,9.3,6,9.6,5.8
				c0.2-0.1,0.3-0.2,0.5-0.3c0.1,0,0.2-0.1,0.3-0.1c0.2-0.1-0.2,0.1,0,0c0.1,0,0.1,0,0.2-0.1c0.8-0.3,1.5-0.5,2.3-0.6
				c-0.1,0-0.2,0-0.2,0c0.9-0.1,1.8-0.1,2.8,0c-0.1,0-0.2,0-0.2,0c0.7,0.1,1.4,0.3,2,0.5c0.2,0.1,0.3,0.1,0.5,0.2
				c0.2,0.1-0.2-0.1-0.1,0c0,0,0.1,0,0.1,0c0.1,0,0.2,0.1,0.3,0.1c0.3,0.1,0.6,0.3,0.9,0.5c0.3,0.2,0.6,0.4,0.8,0.6
				c0.1,0.1-0.2-0.1,0,0c0,0,0.1,0.1,0.1,0.1c0.1,0.1,0.1,0.1,0.2,0.2c0.1,0.1,0.3,0.2,0.4,0.4c0.2,0.2,0.5,0.5,0.7,0.7
				c0.1,0.1,0.2,0.2,0.3,0.4c0,0,0.1,0.2,0,0c0,0,0,0.1,0.1,0.1c0.1,0.1,0.1,0.2,0.2,0.2c0.2,0.3,0.4,0.7,0.6,1
				c0.1,0.2,0.2,0.3,0.3,0.5c0,0.1,0.1,0.2,0.1,0.3c0.1,0.2-0.1-0.2,0,0c0,0.1,0,0.1,0.1,0.2c0.3,0.8,0.5,1.5,0.6,2.3
				c0-0.1,0-0.2,0-0.2C23.3,13,23.3,13.5,23.3,14c0,0.5,0.4,0.9,0.9,0.9c0.5,0,0.9-0.4,0.9-0.9c0-3-1.2-5.9-3.4-7.9
				C19.5,4,16.6,2.9,13.6,3c-3,0.1-5.8,1.4-7.8,3.7c-2,2.2-3,5.2-2.8,8.2c0.2,2.9,1.7,5.7,3.9,7.6c2.3,1.9,5.3,2.8,8.3,2.5
				c1.5-0.2,2.9-0.7,4.3-1.4c1.3-0.7,2.4-1.8,3.3-2.9c1.4-1.9,2.2-4.2,2.2-6.6c0-0.5-0.4-0.9-0.9-0.9C23.7,13.1,23.3,13.5,23.3,14z"
				/>
		</g>
	</g>
	<g>
		<g>
			<path class="st0" d="M0.9,14.8c1.5,0,3.1,0,4.6,0c0.4,0,0.7,0,1.1,0c0.5,0,0.9-0.4,0.9-0.9c0-0.5-0.4-0.9-0.9-0.9
				c-1.5,0-3.1,0-4.6,0c-0.4,0-0.7,0-1.1,0C0.4,13.1,0,13.5,0,14C0,14.4,0.4,14.8,0.9,14.8L0.9,14.8z"/>
		</g>
	</g>
	<g>
		<g>
			<path class="st0" d="M21.4,14.8c1.5,0,3.1,0,4.6,0c0.4,0,0.7,0,1.1,0c0.5,0,0.9-0.4,0.9-0.9c0-0.5-0.4-0.9-0.9-0.9
				c-1.5,0-3.1,0-4.6,0c-0.4,0-0.7,0-1.1,0c-0.5,0-0.9,0.4-0.9,0.9C20.5,14.4,20.9,14.8,21.4,14.8L21.4,14.8z"/>
		</g>
	</g>
	<g>
		<g>
			<path class="st0" d="M14.9,27.1c0-1.5,0-3.1,0-4.6c0-0.4,0-0.7,0-1.1c0-0.5-0.4-0.9-0.9-0.9c-0.5,0-0.9,0.4-0.9,0.9
				c0,1.5,0,3.1,0,4.6c0,0.4,0,0.7,0,1.1c0,0.5,0.4,0.9,0.9,0.9C14.5,28,14.9,27.6,14.9,27.1L14.9,27.1z"/>
		</g>
	</g>
	<g>
		<g>
			<path class="st0" d="M14.9,6.6c0-1.5,0-3.1,0-4.6c0-0.4,0-0.7,0-1.1C14.9,0.4,14.5,0,14,0c-0.5,0-0.9,0.4-0.9,0.9
				c0,1.5,0,3.1,0,4.6c0,0.4,0,0.7,0,1.1c0,0.5,0.4,0.9,0.9,0.9C14.5,7.5,14.9,7.1,14.9,6.6L14.9,6.6z"/>
		</g>
	</g>
	<g>
		<g>
			<path class="st0" d="M16.5,14c0,0.1,0,0.3,0,0.4c0-0.1,0-0.2,0-0.2c0,0.2-0.1,0.3-0.1,0.5c0,0.1,0,0.2-0.1,0.2c0,0,0,0.1,0,0.1
				c0.1-0.3,0-0.1,0,0c-0.1,0.2-0.2,0.3-0.3,0.5c0,0,0,0.1-0.1,0.1c0.2-0.2,0.1-0.1,0,0c-0.1,0.1-0.1,0.1-0.2,0.2
				c-0.1,0.1-0.1,0.1-0.2,0.2c0,0-0.1,0.1-0.1,0.1c-0.1,0.1,0.2-0.1,0,0c-0.1,0.1-0.3,0.2-0.5,0.3c0,0-0.1,0-0.1,0.1
				c-0.1,0.1,0.2-0.1,0.1,0c-0.1,0-0.2,0.1-0.3,0.1c-0.2,0.1-0.4,0.1-0.5,0.1c0.1,0,0.2,0,0.2,0c-0.3,0-0.6,0-0.9,0
				c0.1,0,0.2,0,0.2,0c-0.2,0-0.3-0.1-0.5-0.1c-0.1,0-0.2,0-0.2-0.1c0,0-0.1,0-0.1,0c0.3,0.1,0.1,0,0,0c-0.2-0.1-0.3-0.2-0.5-0.3
				c0,0-0.1,0-0.1-0.1c0.2,0.2,0.1,0.1,0,0c-0.1-0.1-0.1-0.1-0.2-0.2c-0.1-0.1-0.1-0.1-0.2-0.2c0,0-0.1-0.1-0.1-0.1
				c-0.1-0.1,0.1,0.2,0,0c-0.1-0.1-0.2-0.3-0.3-0.5c0,0,0-0.1-0.1-0.1c-0.1-0.1,0.1,0.2,0,0.1c0-0.1-0.1-0.2-0.1-0.3
				c-0.1-0.2-0.1-0.4-0.1-0.5c0,0.1,0,0.2,0,0.2c0-0.3,0-0.6,0-0.9c0,0.1,0,0.2,0,0.2c0-0.2,0.1-0.3,0.1-0.5c0-0.1,0-0.2,0.1-0.2
				c0,0,0-0.1,0-0.1c-0.1,0.3,0,0.1,0,0c0.1-0.2,0.2-0.3,0.3-0.5c0,0,0-0.1,0.1-0.1c-0.2,0.2-0.1,0.1,0,0c0.1-0.1,0.1-0.1,0.2-0.2
				c0.1-0.1,0.1-0.1,0.2-0.2c0,0,0.1-0.1,0.1-0.1c0.1-0.1-0.2,0.1,0,0c0.1-0.1,0.3-0.2,0.5-0.3c0,0,0.1,0,0.1-0.1
				c0.1-0.1-0.2,0.1-0.1,0c0.1,0,0.2-0.1,0.3-0.1c0.2-0.1,0.4-0.1,0.5-0.1c-0.1,0-0.2,0-0.2,0c0.3,0,0.6,0,0.9,0c-0.1,0-0.2,0-0.2,0
				c0.2,0,0.3,0.1,0.5,0.1c0.1,0,0.2,0,0.2,0.1c0,0,0.1,0,0.1,0c-0.3-0.1-0.1,0,0,0c0.2,0.1,0.3,0.2,0.5,0.3c0,0,0.1,0,0.1,0.1
				c-0.2-0.2-0.1-0.1,0,0c0.1,0.1,0.1,0.1,0.2,0.2c0.1,0.1,0.1,0.1,0.2,0.2c0,0,0.1,0.1,0.1,0.1c0.1,0.1-0.1-0.2,0,0
				c0.1,0.1,0.2,0.3,0.3,0.5c0,0,0,0.1,0.1,0.1c0.1,0.1-0.1-0.2,0-0.1c0,0.1,0.1,0.2,0.1,0.3c0.1,0.2,0.1,0.4,0.1,0.5
				c0-0.1,0-0.2,0-0.2C16.5,13.7,16.5,13.8,16.5,14c0,0.5,0.4,0.9,0.9,0.9c0.5,0,0.9-0.4,0.9-0.9c0-0.8-0.2-1.6-0.7-2.3
				c-0.5-0.7-1.2-1.3-2-1.6C14,9.4,12.2,9.8,11,11c-0.6,0.6-1,1.3-1.1,2.1c-0.2,0.9-0.1,1.8,0.3,2.6c0.7,1.5,2.2,2.5,3.9,2.5
				c1.1,0,2.2-0.5,2.9-1.2c0.8-0.8,1.2-1.9,1.2-3c0-0.5-0.4-0.9-0.9-0.9C16.9,13.1,16.5,13.5,16.5,14z"/>
		</g>
	</g>
</g>
</svg>
