<?xml version="1.0" encoding="utf-8"?>
<!-- Generator: Adobe Illustrator 23.0.1, SVG Export Plug-In . SVG Version: 6.00 Build 0)  -->
<svg version="1.1" id="Layer_1" xmlns="http://www.w3.org/2000/svg" xmlns:xlink="http://www.w3.org/1999/xlink" x="0px" y="0px"
	 viewBox="0 0 52 52" style="enable-background:new 0 0 52 52;" xml:space="preserve">
<path d="M50.7,0.1L0.5,22.4c-0.5,0.2-0.7,0.7-0.5,1.2c0.1,0.2,0.3,0.4,0.5,0.5l19.8,7c0.2,0.1,0.4,0.3,0.5,0.5l7,19.8
	c0.2,0.5,0.7,0.7,1.1,0.5c0.2-0.1,0.4-0.3,0.5-0.5L51.9,1.3c0.2-0.5,0-1-0.5-1.2C51.2,0,51,0,50.7,0.1z M6.7,23L43.2,6.7L21.7,28.3
	L6.7,23z M29,45.3l-5.3-15L45.3,8.8L29,45.3z"/>
</svg>
