<?xml version="1.0" encoding="utf-8"?>
<!-- Generator: Adobe Illustrator 23.0.1, SVG Export Plug-In . SVG Version: 6.00 Build 0)  -->
<svg version="1.1" id="Layer_1" xmlns="http://www.w3.org/2000/svg" xmlns:xlink="http://www.w3.org/1999/xlink" x="0px" y="0px"
	 viewBox="0 0 41.5 41.5" style="enable-background:new 0 0 41.5 41.5;" xml:space="preserve">
<style type="text/css">
	.st0{fill:#27E277;}
</style>
<path class="st0" d="M20.7,0C9.3,0,0,9.3,0,20.7c0,11.4,9.3,20.7,20.7,20.7c11.4,0,20.7-9.3,20.7-20.7C41.5,9.3,32.2,0,20.7,0z
	 M20.7,8c3.7,0,6.7,3,6.7,6.7c0,3.7-3,6.7-6.7,6.7c-3.7,0-6.7-3-6.7-6.7C14,11,17,8,20.7,8z M11.2,37.1c0.2,0.1,0.4,0.2,0.6,0.3
	C11.6,37.4,11.4,37.3,11.2,37.1z M20.7,39.4c-5.7,0-10.8-2.6-14.2-6.6c1-4.5,4.9-7.9,9.7-7.9h9c4.8,0,8.8,3.4,9.7,7.9
	C31.5,36.8,26.4,39.4,20.7,39.4z M35.1,33.2C35,33.2,35,33.2,35.1,33.2C35,33.2,35,33.2,35.1,33.2L35.1,33.2z"/>
<polygon points="35.1,33.2 35.1,33.2 35,33.2 "/>
</svg>
