<?xml version="1.0" encoding="utf-8"?>
<!-- Generator: Adobe Illustrator 23.0.1, SVG Export Plug-In . SVG Version: 6.00 Build 0)  -->
<svg version="1.1" id="Layer_1" xmlns="http://www.w3.org/2000/svg" xmlns:xlink="http://www.w3.org/1999/xlink" x="0px" y="0px"
	 viewBox="0 0 775.4 346.86" style="enable-background:new 0 0 775.4 346.86;" xml:space="preserve">
<style type="text/css">
	.st0{fill:#27E277;}
	.st1{fill:#FFFFFF;}
</style>
<g>
	<path class="st0" d="M161.31,267.41c0.34,0.53,0.67,1.05,1.02,1.6c1.07,1.94,3.33,3,5.77,2.97c11.16-0.12,16.75-0.19,27.91-0.31
		c7.59-0.08,11.2-6.34,7.5-12.04c-7.03-10.83-11.86-18.22-17.24-26.37c0.26,0.12,31.88,32.81,33.97,33.48
		c0.9,2.97,3.48,4.62,7.33,4.58c41.12-0.46,61.69-0.69,102.81-1.15c4.89-0.05,7.23-2.43,7.01-7.14c-0.34-7.01-0.56-11.69-0.82-17.14
		c0,0,18.04,18.65,20.09,19.32c0.98,2.97,3.52,4.62,7.25,4.58c10.97-0.12,16.45-0.18,27.42-0.31c4.89-0.05,7.22-2.74,7-7.33
		c-0.69-14.32-1.22-25.35-1.73-36.12c0.33,0.22,36.65,37.1,38.35,37.88c1.89,3.48,4.58,5.03,8.53,4.98
		c14.39-0.16,21.59-0.24,35.98-0.4c4.89-0.05,7.21-2.84,6.98-7.61c-2.33-48.54-4.65-97.08-6.98-145.62
		c0.78,1.14,1.89,1.93,3.28,2.34c0.32,0.98,0.79,1.8,1.4,2.47c1.24,25.9,2.48,51.81,3.73,77.71c0.18,3.73,1.87,6.24,4.73,7.2
		c0.74,2.06,56.06,57.38,58.05,58.05c1.07,2.98,3.56,4.63,7.13,4.59c10.97-0.12,16.45-0.18,27.42-0.31c4.89-0.05,7.2-2.96,6.96-7.94
		c-1.68-35.07-3.36-70.14-5.04-105.21c1.71,12.24,6.34,28.68,19.41,40.29c1.28,1.44,2.66,2.82,4.15,4.15
		c1.28,1.44,2.66,2.82,4.15,4.15c1.28,1.44,2.66,2.82,4.15,4.15c1.28,1.44,2.66,2.82,4.15,4.15c1.28,1.44,2.66,2.82,4.15,4.15
		c1.28,1.44,2.66,2.82,4.15,4.15c1.28,1.44,2.66,2.82,4.15,4.15c1.28,1.44,2.66,2.82,4.15,4.15c1.28,1.44,2.66,2.82,4.15,4.15
		c1.28,1.44,2.66,2.82,4.15,4.15c1.28,1.44,2.66,2.82,4.15,4.15c1.28,1.44,2.66,2.82,4.15,4.15c1.28,1.44,2.66,2.82,4.15,4.15
		c1.28,1.44,2.66,2.82,4.15,4.15c9.46,10.63,24.48,18.55,48.39,18.33c58.02-0.54,59.06-50.31,58.18-68.86
		c-1.35-28.1-2.02-42.15-3.37-70.26c-0.57-11.85-3.14-36.3-19.99-51.12c-1.28-1.45-2.65-2.83-4.15-4.15
		c-1.28-1.45-2.65-2.83-4.15-4.15c-1.28-1.45-2.65-2.83-4.15-4.15c-1.28-1.45-2.65-2.83-4.15-4.15c-1.28-1.45-2.65-2.83-4.15-4.15
		c-1.28-1.45-2.65-2.83-4.15-4.15c-1.28-1.45-2.65-2.83-4.15-4.15c-1.28-1.45-2.65-2.83-4.15-4.15c-1.28-1.45-2.65-2.83-4.15-4.15
		c-1.28-1.45-2.65-2.83-4.15-4.15c-1.28-1.45-2.65-2.84-4.15-4.15c-1.28-1.45-2.65-2.83-4.15-4.15c-1.28-1.45-2.65-2.83-4.15-4.15
		c-1.28-1.45-2.65-2.83-4.15-4.15c-9.43-10.69-24.5-18.1-48.65-16.01c-30.76,2.67-45.47,17.44-52.38,33.34
		c-0.55-0.38-1.17-0.65-1.88-0.83c-0.69-2.25-2.07-3.63-4.15-4.15c-0.69-2.25-2.07-3.63-4.15-4.15c-0.69-2.25-2.07-3.63-4.15-4.15
		c-0.69-2.25-2.07-3.63-4.15-4.15c-0.98-3.21-3.38-4.66-7.21-4.34c-41.63,3.53-83.26,7.07-124.89,10.6c-4.63,0.39-7.2,3.15-6.96,8.2
		c0.25,5.22,0.44,9.24,0.63,13.16c-0.75-1.07-1.82-1.78-3.2-2.11c-0.64-2.25-2.02-3.63-4.15-4.15c-0.64-2.25-2.02-3.63-4.15-4.15
		c-0.64-2.25-2.02-3.63-4.15-4.15c-0.91-3.22-3.34-4.66-7.29-4.33c-10.93,0.93-16.39,1.39-27.32,2.32c-4.63,0.39-7.2,3.09-6.96,8.02
		c0.74,15.5,1.3,27.22,1.86,38.85c-0.25-0.15-0.52-0.27-0.79-0.38c-1.07-2.08-2.43-3.42-4.15-4.15c-1.07-2.08-2.43-3.42-4.15-4.15
		c-1.07-2.08-2.43-3.42-4.15-4.15c-1.07-2.08-2.43-3.42-4.15-4.15c-1.07-2.08-2.43-3.42-4.15-4.15c-1.07-2.08-2.43-3.42-4.15-4.15
		c-1.07-2.08-2.43-3.42-4.15-4.15c-1.07-2.08-2.43-3.42-4.15-4.15c-1.07-2.08-2.43-3.42-4.15-4.15c-1.89-3.66-4.64-5.11-8.75-4.76
		c-14.34,1.22-21.51,1.83-35.86,3.04c-4.63,0.39-7.21,2.99-6.98,7.74c0.29,6.1,0.58,12.2,0.88,18.29c-0.75-1.18-1.87-1.95-3.37-2.3
		c-0.59-2.26-1.96-3.64-4.15-4.15c-0.59-2.26-1.96-3.64-4.15-4.15c-0.59-2.26-1.96-3.64-4.15-4.15c-0.59-2.26-1.96-3.64-4.15-4.15
		c-0.83-3.21-3.28-4.66-7.35-4.31c-40.98,3.48-61.47,5.22-102.45,8.69c-4.63,0.39-7.21,2.85-7,7.31c0.77,15.98,1.53,31.97,2.3,47.95
		c-0.11-0.09-0.22-0.18-0.33-0.27c-1.26-1.5-32.17-34.7-33.67-35.96c-9.85-11.73-26.34-13.5-52.27-11.3
		c-21.37,1.81-32.05,2.72-53.42,4.53c-4.39,0.37-7.43,3.34-7.25,7.08c2.12,44.17,4.24,88.35,6.35,132.52
		c0.13,2.67-0.4,1.32-1.46,3.11c0.61,1.9,61.91,59.93,63.95,60.7c2.57,3.33,3.86,4.78,7.6,4.74c10.97-0.12,16.45-0.18,27.42-0.31
		c4.41-0.05,7.46-2.84,7.27-6.66c-0.64-13.41-0.96-20.11-1.61-33.52c-0.14-2.87,1.55-5.2,4.26-6.25L161.31,267.41z M291.75,153.12
		c-0.29-0.12-0.59-0.22-0.92-0.31c-0.54-2-1.72-3.33-3.55-3.97c1.43-0.1,2.85-0.19,4.25-0.28
		C291.61,150.09,291.68,151.6,291.75,153.12z"/>
	<g>
		<g>
			<g>
				<path class="st1" d="M137.18,193.3c3.7,5.69,0.09,11.95-7.5,12.04c-11.16,0.12-16.75,0.19-27.91,0.31
					c-2.45,0.03-4.7-1.03-5.77-2.97c-11.02-17.31-16.52-25.85-27.52-42.73c-0.52-0.63-1.27-1.03-2.01-1.01
					c-3.91,0.13-5.87,0.2-9.78,0.33c-4.4,0.15-7.45,3.02-7.27,6.84c0.64,13.41,0.96,20.11,1.61,33.52c0.18,3.82-2.87,6.61-7.27,6.66
					c-10.97,0.12-16.45,0.18-27.42,0.31c-4.4,0.05-7.72-2.62-7.9-6.35C6.32,156.08,4.2,111.9,2.08,67.73
					c-0.18-3.74,2.86-6.71,7.25-7.08c21.37-1.81,32.05-2.72,53.42-4.53c43.42-3.68,61.78,11.59,63.52,47.76
					c0.98,20.51-3.95,35.14-16.51,43.95c-0.95,0.69-1.14,1.8-0.6,2.87C120.36,167.52,125.96,176.04,137.18,193.3z M53.54,93.68
					c-4.4,0.29-7.44,3.26-7.26,7.08c0.3,6.28,0.45,9.42,0.75,15.7c0.18,3.82,3.49,6.41,7.89,6.18c4.98-0.26,7.47-0.39,12.46-0.65
					c11.73-0.61,17.53-2.22,16.88-15.62c-0.64-13.4-6.56-14.31-18.28-13.52C61.01,93.18,58.52,93.35,53.54,93.68z"/>
				<path class="st0" d="M16.21,208.68c-5.48,0-9.62-3.48-9.85-8.33L0.01,67.83c-0.23-4.89,3.61-8.78,9.15-9.25l53.42-4.53
					c23.49-1.99,40.03,1.55,50.63,10.83c9.32,8.16,14.27,20.88,15.14,38.89c1.05,21.84-4.64,36.8-17.39,45.74
					c11.14,16.86,16.74,25.39,27.96,42.66h0c2.11,3.25,2.39,6.86,0.76,9.91c-1.76,3.29-5.49,5.28-9.98,5.33l-27.91,0.31
					c-3.29-0.1-6.21-1.51-7.61-4.04c-10.95-17.19-16.45-25.73-27.44-42.6c-0.02,0.03-0.17-0.06-0.22-0.07l-9.76,0.33
					c-1.77,0.06-3.27,0.67-4.22,1.7c-0.74,0.8-1.1,1.83-1.05,2.97l1.61,33.53c0.11,2.25-0.66,4.36-2.16,5.95
					c-1.72,1.83-4.27,2.85-7.16,2.88l-27.42,0.31C16.31,208.68,16.26,208.68,16.21,208.68z M74.6,57.66
					c-3.66,0-7.55,0.18-11.67,0.52L9.51,62.71c-3.28,0.28-5.48,2.3-5.36,4.92l6.35,132.52c0.12,2.59,2.47,4.38,5.71,4.38
					c0.03,0,0.06,0,0.1,0l27.42-0.31c1.76-0.02,3.25-0.58,4.19-1.58c0.73-0.77,1.09-1.78,1.03-2.91l-1.61-33.53
					c-0.11-2.24,0.65-4.36,2.14-5.97c1.71-1.86,4.24-2.94,7.13-3.03l9.78-0.33c1.36-0.04,2.73,0.61,3.68,1.75
					c11.14,17.08,16.65,25.63,27.67,42.94c0.72,1.31,2.25,2,4,2.01l27.91-0.31c2.95-0.03,5.33-1.21,6.36-3.14
					c0.9-1.67,0.69-3.75-0.58-5.69h0c-11.21-17.25-16.8-25.77-27.99-42.59c-1.13-2.21-0.64-4.41,1.1-5.69
					c11.68-8.2,16.65-21.59,15.66-42.18c-0.81-16.83-5.3-28.59-13.73-35.97C102.56,61.07,90.77,57.66,74.6,57.66z M54.39,124.73
					c-2.62,0-4.99-0.85-6.73-2.42c-1.63-1.48-2.59-3.52-2.7-5.75l-0.75-15.7c-0.24-4.99,3.63-8.88,9.19-9.25l12.45-0.83
					c6.53-0.44,12.24-0.52,16.03,2.86c2.75,2.45,4.16,6.46,4.46,12.63c0.75,15.56-7.34,17.18-18.85,17.79l-12.45,0.65
					C54.82,124.72,54.6,124.73,54.39,124.73z M70.99,94.72c-1.46,0-3.08,0.07-4.87,0.19l-12.45,0.83c-3.26,0.22-5.45,2.24-5.32,4.91
					l0.75,15.7c0.05,1.14,0.52,2.14,1.33,2.88c1.05,0.95,2.61,1.44,4.38,1.33l12.46-0.65c11.51-0.6,15.48-1.85,14.92-13.45
					c-0.24-4.99-1.22-8.08-3.08-9.74C77.43,95.23,74.77,94.72,70.99,94.72z"/>
			</g>
			<g>
				<path class="st1" d="M256.18,39.7c4.88-0.41,7.43,1.73,7.66,6.44c0.51,10.54,0.76,15.81,1.26,26.35
					c0.21,4.47-2.11,7.22-6.99,7.55c-23.63,1.58-35.45,2.36-59.08,3.94c-4.64,0.31-7.22,2.76-7,7.31c0.14,2.91,0.21,4.37,0.35,7.28
					c0.21,4.32,3.02,6.67,7.66,6.41c15.14-0.86,22.71-1.29,37.86-2.16c4.89-0.28,7.44,1.91,7.66,6.57
					c0.5,10.44,0.75,15.66,1.25,26.1c0.21,4.43-2.11,7.09-7,7.28c-15.16,0.59-22.73,0.88-37.89,1.47c-4.64,0.18-7.23,2.56-7.01,7.11
					c0.14,2.91,0.21,4.37,0.35,7.28c0.21,4.32,3.02,6.75,7.67,6.61c23.68-0.69,35.51-1.04,59.19-1.73c4.89-0.14,7.45,2.14,7.68,6.84
					c0.51,10.54,0.76,15.81,1.26,26.35c0.23,4.71-2.11,7.08-7.01,7.14c-41.13,0.46-61.69,0.69-102.81,1.15
					c-4.65,0.05-7.46-2.37-7.67-6.61c-2.28-47.56-4.56-95.12-6.84-142.68c-0.21-4.46,2.36-6.92,7-7.31
					C194.71,44.92,215.2,43.18,256.18,39.7z"/>
				<path class="st0" d="M161.1,207.06c-5.67,0-9.34-3.28-9.6-8.58L144.66,55.8c-0.26-5.44,3.07-8.98,8.89-9.47L256,37.64
					c3.07-0.25,5.48,0.37,7.19,1.87c1.66,1.46,2.58,3.66,2.71,6.54l1.26,26.35c0.27,5.69-3.06,9.32-8.92,9.72l-59.08,3.94
					c-4.69,0.31-5.17,2.91-5.07,5.14l0.35,7.28c0.07,1.49,0.52,2.62,1.33,3.35c1.14,1.03,2.87,1.16,4.14,1.09l37.86-2.16
					c3.05-0.19,5.47,0.51,7.18,2.04c1.64,1.48,2.54,3.66,2.68,6.5l1.25,26.1c0.13,2.78-0.57,5.02-2.09,6.68
					c-1.58,1.72-3.9,2.65-6.9,2.76L202,146.31c-1.89,0.07-3.25,0.55-4.06,1.43c-0.71,0.78-1.04,1.96-0.96,3.51l0.35,7.28
					c0.15,3.18,2.04,4.8,5.53,4.64l59.19-1.73c6.07-0.17,9.53,2.96,9.81,8.82l1.26,26.35c0.14,2.88-0.56,5.15-2.08,6.76
					c-1.56,1.66-3.91,2.51-6.98,2.55l-102.81,1.15C161.2,207.06,161.15,207.06,161.1,207.06z M257.32,41.72
					c-0.31,0-0.63,0.01-0.97,0.04L153.9,50.46c-4.78,0.41-5.2,3.13-5.1,5.15l6.84,142.68c0.15,3.11,2.1,4.65,5.57,4.63l102.81-1.15
					c1.9-0.02,3.25-0.44,4.01-1.25c0.71-0.76,1.03-2.01,0.95-3.72l-1.26-26.35c-0.17-3.57-1.83-4.96-5.55-4.87l-59.19,1.73
					c-5.85,0.11-9.54-3.12-9.8-8.58l-0.35-7.28c-0.13-2.7,0.56-4.89,2.05-6.51c1.58-1.72,3.91-2.65,6.95-2.77l37.89-1.47
					c1.86-0.07,3.21-0.55,4.01-1.42c0.74-0.81,1.08-2.05,1-3.68l-1.25-26.1c-0.08-1.69-0.52-2.91-1.31-3.62
					c-0.85-0.76-2.26-1.1-4.17-0.99l-37.86,2.16c-2.93,0.18-5.4-0.57-7.14-2.14c-1.64-1.48-2.58-3.63-2.7-6.24l-0.35-7.28
					c-0.26-5.55,3.08-9.09,8.93-9.48l59.08-3.94c3.66-0.24,5.22-1.9,5.05-5.38l-1.26-26.35c-0.08-1.71-0.52-2.93-1.3-3.62
					C259.78,42.03,258.73,41.72,257.32,41.72z"/>
			</g>
			<g>
				<path class="st1" d="M325.44,33.82c4.15-0.35,6.91,1.11,8.81,4.86c14.82,31.23,22.24,47.08,37.11,79.24
					c1.08,2.17,3.01,1.59,2.9-0.88c-1.53-31.84-2.29-47.77-3.82-79.61c-0.24-4.93,2.33-7.62,6.96-8.02
					c10.93-0.93,16.39-1.39,27.32-2.32c4.88-0.41,7.44,1.89,7.68,6.91c2.57,53.52,5.13,107.04,7.7,160.57
					c0.23,4.77-2.09,7.55-6.98,7.61c-14.39,0.16-21.59,0.24-35.98,0.4c-4.16,0.05-6.94-1.65-8.84-5.55
					c-14.88-32.51-22.31-48.54-37.15-80.12c-1.08-2.13-3.01-1.55-2.9,0.87c1.5,31.22,2.25,46.83,3.74,78.05
					c0.22,4.59-2.1,7.28-7,7.33c-10.97,0.12-16.45,0.18-27.42,0.31c-4.65,0.05-7.47-2.53-7.69-7.03
					c-2.43-50.61-4.85-101.22-7.28-151.83c-0.23-4.74,2.34-7.35,6.98-7.74C303.93,35.65,311.1,35.04,325.44,33.82z"/>
				<path class="st0" d="M297.43,205.54c-5.67,0-9.35-3.44-9.62-9.01L280.53,44.7c-0.27-5.7,3.04-9.41,8.87-9.9l35.86-3.04
					c5.05-0.42,8.58,1.53,10.83,5.99c14.53,30.61,21.82,46.16,35.96,76.75l-3.69-76.96c-0.28-5.88,3.03-9.69,8.86-10.18l27.32-2.32
					c2.98-0.25,5.36,0.38,7.07,1.88c1.75,1.53,2.7,3.88,2.85,6.99l7.7,160.56c0.15,3.05-0.6,5.47-2.23,7.19
					c-1.59,1.68-3.87,2.55-6.8,2.59l-35.99,0.4c-0.06,0-0.13,0-0.19,0c-4.89,0-8.34-2.2-10.54-6.71
					c-14.57-31.83-21.87-47.58-35.99-77.64l3.62,75.43c0.14,2.91-0.59,5.24-2.16,6.91c-1.59,1.69-3.91,2.56-6.88,2.59l-27.42,0.31
					C297.54,205.54,297.49,205.54,297.43,205.54z M325.62,35.89l-35.86,3.04c-3.64,0.31-5.25,2.08-5.08,5.58l7.28,151.83
					c0.16,3.4,2.03,4.95,5.59,5.06l27.42-0.31c1.81-0.02,3.12-0.45,3.91-1.29c0.78-0.82,1.13-2.12,1.04-3.87l-3.74-78.05
					c-0.1-2.14,0.9-3.81,2.57-4.25c1.26-0.34,3.1,0.09,4.25,2.34c14.93,31.79,22.23,47.52,37.19,80.2c1.51,3.11,3.55,4.32,6.93,4.34
					l35.99-0.4c1.76-0.02,3.05-0.45,3.83-1.29c0.82-0.87,1.19-2.27,1.11-4.15l-7.7-160.56c-0.09-1.95-0.58-3.31-1.45-4.07
					c-0.83-0.73-2.16-1.03-3.99-0.87l-27.32,2.32c-3.63,0.31-5.24,2.17-5.07,5.85l3.82,79.61c0.13,2.64-1.31,3.96-2.58,4.29
					c-1.26,0.32-3.1-0.11-4.24-2.39c-14.95-32.34-22.23-47.89-37.12-79.27C330.91,36.68,328.94,35.62,325.62,35.89L325.62,35.89z"/>
			</g>
			<g>
				<path class="st1" d="M477.93,73.12c-0.25-5.15-2.82-7.56-7.7-7.24c-13.67,0.91-20.51,1.37-34.18,2.28
					c-4.64,0.31-7.46-2.29-7.69-7.09c-0.54-11.31-0.81-16.96-1.36-28.27c-0.24-5.05,2.32-7.8,6.96-8.2
					c41.63-3.53,83.26-7.07,124.89-10.6c4.88-0.41,7.45,2.05,7.7,7.39c0.57,11.97,0.86,17.95,1.43,29.91
					c0.24,5.07-2.06,8.18-6.94,8.5c-13.67,0.91-20.51,1.37-34.18,2.28c-4.64,0.31-7.2,3.11-6.95,8.35
					c1.96,40.87,3.92,81.74,5.88,122.6c0.24,4.98-2.07,7.89-6.96,7.94c-10.97,0.12-16.45,0.18-27.42,0.31
					c-4.65,0.05-7.48-2.75-7.71-7.64C481.79,153.48,479.86,113.3,477.93,73.12z"/>
				<path class="st0" d="M491.3,203.38c-5.68,0-9.37-3.67-9.66-9.62l-5.78-120.54c-0.1-2.05-0.61-3.51-1.52-4.32
					c-0.84-0.75-2.18-1.06-3.97-0.95l-34.18,2.28c-2.8,0.18-5.2-0.53-6.94-2.09c-1.79-1.6-2.81-4-2.95-6.97l-1.36-28.27
					c-0.29-5.99,3.02-9.87,8.85-10.36l124.89-10.6c2.92-0.25,5.25,0.39,6.96,1.89c1.83,1.6,2.83,4.11,2.99,7.47l1.43,29.92
					c0.3,6.29-3.01,10.28-8.87,10.67l-34.18,2.28c-3.61,0.24-5.21,2.2-5.02,6.18l5.88,122.6c0.15,3.22-0.62,5.76-2.3,7.53
					c-1.58,1.68-3.85,2.55-6.72,2.58l-27.42,0.31C491.4,203.38,491.35,203.38,491.3,203.38z M480,73.02l5.78,120.54
					c0.18,3.8,2.12,5.56,5.62,5.67l27.42-0.31c1.7-0.02,2.97-0.45,3.75-1.28c0.87-0.93,1.27-2.44,1.17-4.49l-5.88-122.6
					c-0.3-6.19,3.02-10.13,8.88-10.52l34.18-2.28c2.27-0.15,5.26-0.97,5.01-6.33l-1.43-29.92c-0.11-2.19-0.64-3.72-1.59-4.55
					c-0.83-0.73-2.13-1.03-3.87-0.88l-124.89,10.6c-3.64,0.31-5.24,2.22-5.06,6.03l1.36,28.27c0.06,1.27,0.38,3.01,1.57,4.07
					c0.91,0.81,2.24,1.16,3.91,1.04l34.18-2.28c2.92-0.19,5.3,0.47,7,1.99C478.87,67.39,479.85,69.82,480,73.02L480,73.02z"/>
			</g>
			<g>
				<path class="st1" d="M704.78,135.66c0.89,18.55-0.15,68.32-58.18,68.86c-58.02,0.54-63.73-46.89-64.57-64.59
					c-1.29-26.81-1.93-40.22-3.21-67.03c-0.85-17.7,0.29-65.45,58.1-70.47c57.81-5.02,63.61,44.43,64.5,62.98
					C702.76,93.5,703.43,107.56,704.78,135.66z M660.11,82.63c-1.02-21.3-2.86-34.22-20.93-32.98
					c-18.06,1.24-18.67,14.13-17.67,35.12c0.75,15.7,1.13,23.55,1.88,39.25c1.01,20.99,2.85,33.76,20.95,33.27
					c18.1-0.49,18.7-13.53,17.68-34.83C661.25,106.53,660.87,98.56,660.11,82.63z"/>
				<path class="st0" d="M645.66,206.59c-40.32,0-63.63-23.6-65.69-66.56L576.75,73c-2.07-43.3,19.23-69.1,59.99-72.63
					c19.24-1.68,34.71,2.46,45.95,12.28c12.66,11.06,19.65,28.78,20.8,52.66l3.37,70.26c1.15,23.88-4.12,42.19-15.66,54.41
					c-10.24,10.85-25.24,16.44-44.56,16.62C646.3,206.59,645.98,206.59,645.66,206.59z M644.81,4.15c-2.49,0-5.07,0.11-7.72,0.34
					c-48.95,4.25-57.58,39.49-56.21,68.3l3.21,67.03c1.38,28.62,13.2,62.61,61.52,62.62c0.32,0,0.64,0,0.97,0
					c18.16-0.17,32.15-5.32,41.59-15.32c10.73-11.37,15.62-28.65,14.54-51.37l-3.37-70.26c-1.09-22.71-7.61-39.45-19.39-49.74
					C671.12,8.04,659.33,4.15,644.81,4.15z M643.37,159.38c-20.36,0-21.18-17.13-22.04-35.26l-1.88-39.25
					c-0.89-18.42-1.72-35.83,19.6-37.29c6.53-0.45,11.46,0.86,15,4c6.44,5.73,7.47,16.92,8.14,30.94l1.91,39.83
					c0.67,14.03,0.72,25.26-5.14,31.58c-3.22,3.47-7.98,5.24-14.55,5.42C644.05,159.37,643.7,159.38,643.37,159.38z M641.47,51.65
					c-0.69,0-1.4,0.02-2.14,0.08c-15.63,1.07-16.8,10.86-15.74,32.95l1.88,39.25c1.06,22.08,3.17,31.74,18.82,31.29
					c5.4-0.15,9.2-1.49,11.62-4.09c4.77-5.14,4.67-15.52,4.04-28.56l-1.91-39.83c-0.63-13.04-1.53-23.38-6.76-28.04
					C648.99,52.65,645.77,51.65,641.47,51.65z"/>
			</g>
		</g>
	</g>
	<polygon class="st0" points="220.86,268.17 217.49,264.48 221.55,263.62 222.43,267.28 	"/>
	<path class="st0" d="M357.68,267.2l-6.5-6.67c0,0,6.57-0.15,6.96,0c0.39,0.15,1.37,7.71,1.37,7.71L357.68,267.2z"/>
	<polygon class="st0" points="431.96,261.28 436.72,266.39 440.46,262.73 432.41,259.44 	"/>
	<polygon class="st0" points="551.28,264.41 545.76,258.73 554.51,259.61 	"/>
	<polygon class="st0" points="485.96,201.98 508.77,222.09 507.23,209.66 490.78,200.64 	"/>
	<polygon class="st0" points="581.35,32.5 566.53,14.76 566.53,20.85 573.42,30.79 	"/>
	<polygon class="st0" points="425.49,44.21 412.19,27.47 412.64,33.8 422.18,46.34 	"/>
	<polygon class="st0" points="370.1,73.79 334.51,35.29 337.92,44.23 370.19,75.65 	"/>
	<polygon class="st0" points="281.31,61.01 263.19,39.5 265.92,56.5 	"/>
</g>
<g>
	<path class="st0" d="M48.95,295.64c0.97-0.01,1.59,0.38,1.95,1.29l4.32,10.52c0.23,0.51,0.57,0.5,0.79-0.01l4.09-10.61
		c0.33-0.91,0.95-1.32,1.92-1.33l8.12-0.09c1.31-0.01,1.88,0.77,1.33,1.97l-9.92,22.83c-0.11,0.23-0.11,0.46-0.11,0.68l0.14,12.66
		c0.01,1.08-0.55,1.71-1.69,1.72l-7.95,0.09c-1.08,0.01-1.71-0.61-1.72-1.69l-0.14-12.66c0-0.23,0-0.45-0.12-0.68l-10.47-22.61
		c-0.58-1.19-0.02-1.99,1.28-2L48.95,295.64z"/>
	<path class="st0" d="M101.88,322.05c0.04,3.75-0.65,13.81-14.11,13.95c-13.46,0.14-14.36-9.9-14.4-13.65l-0.15-14.2
		c-0.04-3.75,0.65-13.81,14.11-13.95c13.46-0.14,14.36,9.9,14.4,13.65L101.88,322.05z M92,310.97c-0.05-4.37-0.36-7.04-4.56-6.99
		s-4.46,2.72-4.41,7.09l0.09,8.18c0.05,4.37,0.36,7.04,4.56,6.99c4.2-0.04,4.46-2.72,4.41-7.09L92,310.97z"/>
	<path class="st0" d="M114.43,294.94c1.14-0.01,1.71,0.55,1.72,1.69l0.24,22.26c0.05,4.37,0.36,7.04,4.56,6.99
		c4.2-0.04,4.46-2.72,4.41-7.09l-0.24-22.26c-0.01-1.14,0.61-1.71,1.69-1.72l6.36-0.07c1.14-0.01,1.71,0.55,1.72,1.69l0.27,25.27
		c0.04,3.75-0.65,13.81-14.11,13.95c-13.46,0.14-14.36-9.9-14.4-13.65l-0.27-25.27c-0.01-1.14,0.61-1.71,1.69-1.72L114.43,294.94z"
		/>
	<path class="st0" d="M170.54,331.03c0.81,1.47-0.08,3.07-1.84,3.09l-6.47,0.07c-0.57,0.01-1.08-0.27-1.32-0.78l-6.03-11.35
		c-0.11-0.17-0.29-0.28-0.46-0.28l-2.27,0.02c-1.02,0.01-1.75,0.76-1.74,1.78l0.1,8.97c0.01,1.02-0.72,1.77-1.74,1.78l-6.36,0.07
		c-1.02,0.01-1.77-0.72-1.78-1.74l-0.39-36.23c-0.01-1.02,0.72-1.77,1.74-1.78l12.44-0.13c10.11-0.11,14.24,4.16,14.34,13.48
		c0.06,5.28-1.21,8.99-4.2,11.18c-0.23,0.17-0.28,0.46-0.16,0.74L170.54,331.03z M151.96,304.3c-1.02,0.01-1.75,0.76-1.74,1.78
		l0.04,4.2c0.01,1.02,0.76,1.75,1.78,1.74l2.9-0.03c2.73-0.03,4.08-0.38,4.05-3.91c-0.04-3.52-1.41-3.85-4.13-3.82L151.96,304.3z"/>
	<path class="st0" d="M216.48,293.84c1.14-0.01,1.71,0.55,1.72,1.69l0.07,6.36c0.01,1.08-0.55,1.71-1.69,1.72l-13.74,0.15
		c-1.08,0.01-1.7,0.59-1.68,1.72l0.02,1.82c0.01,1.08,0.64,1.7,1.72,1.69l8.8-0.09c1.14-0.01,1.71,0.55,1.72,1.69l0.07,6.36
		c0.01,1.08-0.55,1.71-1.68,1.72l-8.8,0.09c-1.08,0.01-1.7,0.59-1.68,1.72l0.02,1.82c0.01,1.08,0.64,1.7,1.72,1.69l13.74-0.15
		c1.14-0.01,1.71,0.55,1.72,1.69l0.07,6.36c0.01,1.14-0.55,1.71-1.69,1.72l-23.85,0.26c-1.08,0.01-1.71-0.61-1.72-1.69l-0.39-36.35
		c-0.01-1.14,0.61-1.71,1.68-1.72L216.48,293.84z"/>
	<path class="st0" d="M248.68,293.5c1.14-0.01,1.71,0.55,1.72,1.69l0.07,6.36c0.01,1.08-0.55,1.71-1.69,1.72l-14.31,0.15
		c-1.08,0.01-1.7,0.59-1.68,1.72l0.02,1.82c0.01,1.08,0.64,1.7,1.72,1.69l9.37-0.1c1.14-0.01,1.71,0.55,1.72,1.69l0.07,6.36
		c0.01,1.08-0.55,1.71-1.69,1.72l-9.37,0.1c-1.08,0.01-1.7,0.59-1.68,1.72l0.12,11.59c0.01,1.08-0.55,1.71-1.69,1.72l-6.7,0.07
		c-1.08,0.01-1.71-0.61-1.72-1.69l-0.39-36.35c-0.01-1.14,0.61-1.71,1.69-1.72L248.68,293.5z"/>
	<path class="st0" d="M279.92,293.16c1.14-0.01,1.71,0.55,1.72,1.69l0.07,6.36c0.01,1.08-0.55,1.71-1.69,1.72l-14.31,0.15
		c-1.08,0.01-1.7,0.59-1.68,1.72l0.02,1.82c0.01,1.08,0.64,1.7,1.72,1.69l9.37-0.1c1.14-0.01,1.71,0.55,1.72,1.69l0.07,6.36
		c0.01,1.08-0.55,1.71-1.69,1.72l-9.37,0.1c-1.08,0.01-1.7,0.59-1.68,1.72l0.12,11.59c0.01,1.08-0.55,1.71-1.69,1.72l-6.7,0.07
		c-1.08,0.01-1.71-0.61-1.72-1.69l-0.39-36.35c-0.01-1.14,0.61-1.71,1.68-1.72L279.92,293.16z"/>
	<path class="st0" d="M292.98,293.02c1.14-0.01,1.71,0.55,1.72,1.69l0.39,36.35c0.01,1.08-0.55,1.71-1.68,1.72l-6.25,0.07
		c-1.08,0.01-1.71-0.61-1.72-1.69l-0.39-36.35c-0.01-1.14,0.61-1.71,1.68-1.72L292.98,293.02z"/>
	<path class="st0" d="M299.93,305.73c-0.04-3.75,0.65-13.81,14.11-13.95c12.1-0.13,14.06,7.97,14.33,12.34
		c0.07,0.79-0.44,1.42-1.23,1.6l-6.29,1.49c-1.19,0.24-2.11-0.55-2.29-1.74c-0.31-2.5-1.35-3.96-4.42-3.93
		c-4.2,0.04-4.46,2.72-4.41,7.09l0.09,8.18c0.05,4.37,0.36,7.04,4.56,6.99c3.13-0.03,3.96-1.52,4.27-4.14
		c0.16-1.19,1.06-1.94,2.2-1.67l6.43,1.35c0.8,0.16,1.32,0.78,1.27,1.63c-0.18,4.32-1.97,12.46-14.06,12.59
		c-13.46,0.14-14.36-9.9-14.4-13.65L299.93,305.73z"/>
	<path class="st0" d="M340.12,292.52c1.14-0.01,1.71,0.55,1.72,1.69l0.39,36.35c0.01,1.08-0.55,1.71-1.68,1.72l-6.25,0.07
		c-1.08,0.01-1.71-0.61-1.72-1.69l-0.39-36.35c-0.01-1.14,0.61-1.71,1.69-1.72L340.12,292.52z"/>
	<path class="st0" d="M373.06,292.16c1.14-0.01,1.71,0.55,1.72,1.69l0.07,6.36c0.01,1.08-0.55,1.71-1.69,1.72l-13.74,0.15
		c-1.08,0.01-1.7,0.59-1.68,1.72l0.02,1.82c0.01,1.08,0.64,1.7,1.72,1.69l8.8-0.09c1.14-0.01,1.71,0.55,1.72,1.69l0.07,6.36
		c0.01,1.08-0.55,1.71-1.68,1.72l-8.8,0.09c-1.08,0.01-1.7,0.59-1.68,1.72l0.02,1.82c0.01,1.08,0.64,1.7,1.72,1.69l13.74-0.15
		c1.14-0.01,1.71,0.55,1.72,1.69l0.07,6.36c0.01,1.14-0.55,1.71-1.69,1.72l-23.85,0.26c-1.08,0.01-1.71-0.61-1.72-1.69l-0.39-36.35
		c-0.01-1.14,0.61-1.71,1.68-1.72L373.06,292.16z"/>
	<path class="st0" d="M389.18,291.99c0.97-0.01,1.59,0.38,2,1.28l7.93,18.83c0.23,0.51,0.69,0.39,0.68-0.18l-0.2-18.34
		c-0.01-1.14,0.61-1.71,1.68-1.72l6.36-0.07c1.14-0.01,1.71,0.55,1.72,1.69l0.39,36.35c0.01,1.08-0.55,1.71-1.69,1.72l-8.35,0.09
		c-0.96,0.01-1.59-0.38-2-1.28l-7.93-18.83c-0.23-0.51-0.69-0.39-0.68,0.18l0.2,18.34c0.01,1.08-0.55,1.71-1.69,1.72l-6.36,0.07
		c-1.08,0.01-1.71-0.61-1.72-1.69l-0.39-36.35c-0.01-1.14,0.61-1.71,1.69-1.72L389.18,291.99z"/>
	<path class="st0" d="M424.23,303.09c-0.01-1.14-0.59-1.7-1.72-1.69l-7.95,0.09c-1.08,0.01-1.71-0.61-1.72-1.69l-0.07-6.36
		c-0.01-1.14,0.61-1.71,1.68-1.72l29.08-0.31c1.14-0.01,1.71,0.55,1.72,1.69l0.07,6.36c0.01,1.08-0.55,1.71-1.69,1.72l-7.95,0.08
		c-1.08,0.01-1.7,0.59-1.68,1.72l0.29,26.58c0.01,1.08-0.55,1.71-1.68,1.72l-6.36,0.07c-1.08,0.01-1.71-0.61-1.72-1.69
		L424.23,303.09z"/>
	<path class="st0" d="M465.25,303.96c-0.04-3.75,0.65-13.81,14.11-13.95c12.1-0.13,14.06,7.97,14.33,12.34
		c0.07,0.79-0.44,1.42-1.23,1.6l-6.29,1.49c-1.19,0.24-2.11-0.55-2.29-1.74c-0.31-2.5-1.35-3.96-4.42-3.93
		c-4.2,0.04-4.46,2.72-4.41,7.09l0.09,8.18c0.05,4.37,0.36,7.04,4.56,6.99c3.12-0.03,3.96-1.52,4.27-4.14
		c0.16-1.19,1.06-1.94,2.2-1.67l6.43,1.35c0.8,0.16,1.32,0.78,1.27,1.63c-0.18,4.32-1.97,12.46-14.06,12.59
		c-13.46,0.14-14.36-9.9-14.4-13.65L465.25,303.96z"/>
	<path class="st0" d="M525.43,328.36c0.01,1.25-0.55,1.94-1.68,1.95l-6.36,0.07c-1.08,0.01-1.71-0.55-1.72-1.69l-0.05-4.94
		c-0.01-1.14-0.59-1.7-1.72-1.69l-4.88,0.05c-1.08,0.01-1.7,0.59-1.69,1.72l0.05,4.94c0.01,1.14-0.55,1.71-1.69,1.72l-6.36,0.07
		c-1.08,0.01-1.71-0.66-1.72-1.91l-0.26-24.08c-0.08-7.16,0.98-14.78,13.75-14.91c12.78-0.14,14,7.46,14.07,14.62L525.43,328.36z
		 M515.41,304.38c-0.03-2.73-0.44-4.08-4.19-4.04s-4.13,1.41-4.1,4.13l0.07,6.19c0.01,1.08,0.64,1.7,1.72,1.69l4.88-0.05
		c1.13-0.07,1.7-0.64,1.68-1.78L515.41,304.38z"/>
	<path class="st0" d="M560.75,326.84c0.81,1.47-0.08,3.07-1.84,3.09l-6.47,0.07c-0.57,0.01-1.08-0.27-1.31-0.78l-6.03-11.35
		c-0.11-0.17-0.29-0.28-0.46-0.28l-2.27,0.02c-1.02,0.01-1.75,0.76-1.74,1.78l0.1,8.97c0.01,1.02-0.72,1.77-1.74,1.78l-6.36,0.07
		c-1.02,0.01-1.77-0.72-1.78-1.74l-0.39-36.23c-0.01-1.02,0.72-1.77,1.74-1.78l12.44-0.13c10.11-0.11,14.24,4.16,14.34,13.48
		c0.06,5.28-1.21,8.99-4.2,11.18c-0.23,0.17-0.28,0.46-0.16,0.74L560.75,326.84z M542.17,300.12c-1.02,0.01-1.75,0.76-1.74,1.78
		l0.04,4.2c0.01,1.02,0.76,1.75,1.78,1.74l2.9-0.03c2.72-0.03,4.08-0.38,4.05-3.91c-0.04-3.52-1.41-3.85-4.13-3.82L542.17,300.12z"
		/>
	<path class="st0" d="M611.46,326.3c0.81,1.47-0.08,3.07-1.84,3.09l-6.47,0.07c-0.57,0.01-1.08-0.27-1.31-0.78l-6.03-11.35
		c-0.11-0.17-0.29-0.28-0.46-0.28l-2.27,0.02c-1.02,0.01-1.75,0.76-1.74,1.78l0.1,8.97c0.01,1.02-0.72,1.77-1.74,1.78l-6.36,0.07
		c-1.02,0.01-1.77-0.72-1.78-1.74l-0.39-36.23c-0.01-1.02,0.72-1.77,1.74-1.78l12.44-0.13c10.11-0.11,14.24,4.16,14.34,13.48
		c0.06,5.28-1.21,8.99-4.2,11.18c-0.23,0.17-0.28,0.46-0.16,0.74L611.46,326.3z M592.89,299.58c-1.02,0.01-1.75,0.76-1.74,1.78
		l0.04,4.2c0.01,1.02,0.76,1.75,1.78,1.74l2.9-0.03c2.72-0.03,4.08-0.38,4.05-3.91c-0.04-3.52-1.41-3.85-4.13-3.82L592.89,299.58z"
		/>
	<path class="st0" d="M640.37,289.3c1.14-0.01,1.71,0.55,1.72,1.69l0.07,6.36c0.01,1.08-0.55,1.71-1.69,1.72l-13.74,0.15
		c-1.08,0.01-1.7,0.59-1.68,1.72l0.02,1.82c0.01,1.08,0.64,1.7,1.72,1.69l8.8-0.09c1.14-0.01,1.71,0.55,1.72,1.69l0.07,6.36
		c0.01,1.08-0.55,1.71-1.68,1.72l-8.8,0.09c-1.08,0.01-1.7,0.59-1.68,1.72l0.02,1.82c0.01,1.08,0.64,1.7,1.72,1.69l13.74-0.15
		c1.14-0.01,1.71,0.55,1.72,1.69l0.07,6.36c0.01,1.14-0.55,1.71-1.69,1.72l-23.85,0.26c-1.08,0.01-1.71-0.61-1.72-1.69l-0.39-36.35
		c-0.01-1.14,0.61-1.71,1.69-1.72L640.37,289.3z"/>
	<path class="st0" d="M656.5,289.13c0.97-0.01,1.59,0.38,2,1.28l7.93,18.83c0.23,0.51,0.69,0.39,0.68-0.18l-0.2-18.34
		c-0.01-1.14,0.61-1.71,1.69-1.72l6.36-0.07c1.14-0.01,1.71,0.55,1.72,1.69l0.39,36.35c0.01,1.08-0.55,1.71-1.69,1.72l-8.35,0.09
		c-0.96,0.01-1.59-0.38-2-1.29l-7.92-18.83c-0.23-0.51-0.69-0.39-0.68,0.18l0.2,18.34c0.01,1.08-0.55,1.71-1.69,1.72l-6.36,0.07
		c-1.08,0.01-1.71-0.61-1.72-1.69l-0.39-36.35c-0.01-1.14,0.61-1.71,1.69-1.72L656.5,289.13z"/>
	<path class="st0" d="M691.55,300.22c-0.01-1.14-0.59-1.7-1.72-1.69l-7.95,0.09c-1.08,0.01-1.71-0.61-1.72-1.69l-0.07-6.36
		c-0.01-1.14,0.61-1.71,1.68-1.72l29.08-0.31c1.14-0.01,1.71,0.55,1.72,1.69l0.07,6.36c0.01,1.08-0.55,1.71-1.69,1.72L703,298.4
		c-1.08,0.01-1.7,0.59-1.68,1.72l0.29,26.58c0.01,1.08-0.55,1.71-1.69,1.72l-6.36,0.07c-1.08,0.01-1.71-0.61-1.72-1.69
		L691.55,300.22z"/>
	<path class="st0" d="M743.34,326.02c0.01,1.25-0.55,1.94-1.68,1.95l-6.36,0.07c-1.08,0.01-1.71-0.55-1.72-1.69l-0.05-4.94
		c-0.01-1.14-0.59-1.7-1.72-1.69l-4.88,0.05c-1.08,0.01-1.7,0.59-1.68,1.72l0.05,4.94c0.01,1.14-0.55,1.71-1.69,1.72l-6.36,0.07
		c-1.08,0.01-1.71-0.66-1.73-1.91l-0.26-24.08c-0.08-7.16,0.98-14.78,13.75-14.91c12.78-0.14,14,7.46,14.07,14.62L743.34,326.02z
		 M733.32,302.05c-0.03-2.73-0.44-4.08-4.19-4.04c-3.75,0.04-4.13,1.41-4.1,4.13l0.07,6.19c0.01,1.08,0.64,1.7,1.72,1.69l4.88-0.05
		c1.13-0.07,1.7-0.64,1.68-1.78L733.32,302.05z"/>
	<path class="st0" d="M756.4,288.05c1.14-0.01,1.71,0.55,1.72,1.69l0.29,26.58c0.01,1.08,0.64,1.7,1.72,1.69l12.67-0.14
		c1.14-0.01,1.71,0.55,1.72,1.69l0.07,6.36c0.01,1.14-0.55,1.71-1.69,1.72l-22.43,0.24c-1.08,0.01-1.71-0.61-1.72-1.69l-0.39-36.35
		c-0.01-1.14,0.61-1.71,1.68-1.72L756.4,288.05z"/>
</g>
</svg>
