<?xml version="1.0" encoding="utf-8"?>
<!-- Generator: Adobe Illustrator 23.0.1, SVG Export Plug-In . SVG Version: 6.00 Build 0)  -->
<svg version="1.1" id="Layer_1" xmlns="http://www.w3.org/2000/svg" xmlns:xlink="http://www.w3.org/1999/xlink" x="0px" y="0px"
	 viewBox="0 0 359.88 119.61" style="enable-background:new 0 0 359.88 119.61;" xml:space="preserve">
<style type="text/css">
	.st0{display:none;fill:#27E277;}
	.st1{fill:#FFFFFF;}
	.st2{fill:#27E277;}
</style>
<rect x="-391.2" y="-28.95" class="st0" width="1124.07" height="177"/>
<g>
	<g>
		<g>
			<g>
				<path class="st1" d="M68.14,95.2c1.79,2.75,0.04,5.76-3.62,5.8c-5.38,0.06-8.07,0.09-13.46,0.15c-1.18,0.01-2.27-0.5-2.78-1.43
					c-5.31-8.34-7.97-12.47-13.27-20.6c-0.25-0.3-0.61-0.5-0.97-0.48c-1.89,0.06-2.83,0.1-4.71,0.16c-2.12,0.07-3.59,1.46-3.5,3.3
					c0.31,6.47,0.46,9.7,0.77,16.16c0.09,1.84-1.38,3.19-3.51,3.21c-5.29,0.06-7.93,0.09-13.22,0.15c-2.12,0.02-3.72-1.26-3.81-3.06
					C5.04,77.25,4.02,55.95,3,34.66c-0.09-1.8,1.38-3.24,3.5-3.41c10.3-0.87,15.46-1.31,25.76-2.19
					c20.93-1.78,29.79,5.59,30.63,23.03c0.47,9.89-1.9,16.94-7.96,21.19c-0.46,0.33-0.55,0.87-0.29,1.38
					C60.03,82.77,62.73,86.88,68.14,95.2z M27.81,47.17c-2.12,0.14-3.59,1.57-3.5,3.41c0.15,3.03,0.22,4.54,0.36,7.57
					c0.09,1.84,1.68,3.09,3.81,2.98c2.4-0.13,3.6-0.19,6.01-0.31c5.65-0.3,8.45-1.07,8.14-7.53c-0.31-6.46-3.16-6.9-8.81-6.52
					C31.41,46.93,30.21,47.01,27.81,47.17z"/>
			</g>
			<g>
				<path class="st1" d="M125.52,21.14c2.35-0.2,3.58,0.84,3.69,3.1c0.24,5.08,0.37,7.62,0.61,12.7c0.1,2.16-1.02,3.48-3.37,3.64
					c-11.4,0.76-17.09,1.14-28.49,1.9c-2.24,0.15-3.48,1.33-3.37,3.53c0.07,1.4,0.1,2.11,0.17,3.51c0.1,2.08,1.45,3.22,3.69,3.09
					c7.3-0.42,10.95-0.62,18.25-1.04c2.36-0.13,3.59,0.92,3.7,3.17c0.24,5.03,0.36,7.55,0.6,12.58c0.1,2.13-1.02,3.42-3.38,3.51
					c-7.31,0.28-10.96,0.43-18.27,0.71c-2.24,0.09-3.48,1.23-3.38,3.43c0.07,1.4,0.1,2.11,0.17,3.51c0.1,2.08,1.46,3.25,3.7,3.19
					c11.42-0.33,17.12-0.5,28.54-0.83c2.36-0.07,3.59,1.03,3.7,3.3c0.24,5.08,0.37,7.62,0.61,12.7c0.11,2.27-1.02,3.42-3.38,3.44
					c-19.83,0.22-29.74,0.33-49.57,0.55c-2.24,0.03-3.6-1.14-3.7-3.18c-1.1-22.93-2.2-45.86-3.3-68.79
					c-0.1-2.15,1.14-3.34,3.37-3.52C95.88,23.66,105.76,22.82,125.52,21.14z"/>
			</g>
			<g>
				<path class="st1" d="M158.91,18.31c2-0.17,3.33,0.54,4.25,2.34c7.15,15.06,10.72,22.7,17.89,38.2c0.52,1.05,1.45,0.77,1.4-0.42
					c-0.74-15.35-1.1-23.03-1.84-38.38c-0.11-2.38,1.12-3.68,3.36-3.87c5.27-0.45,7.9-0.67,13.17-1.12c2.35-0.2,3.59,0.91,3.7,3.33
					c1.24,25.81,2.47,51.61,3.71,77.42c0.11,2.3-1.01,3.64-3.37,3.67c-6.94,0.08-10.41,0.12-17.35,0.19
					c-2.01,0.02-3.34-0.79-4.26-2.68c-7.18-15.68-10.76-23.4-17.91-38.63c-0.52-1.03-1.45-0.75-1.4,0.42
					c0.72,15.05,1.08,22.58,1.8,37.63c0.11,2.21-1.01,3.51-3.37,3.53c-5.29,0.06-7.93,0.09-13.22,0.15
					c-2.24,0.03-3.6-1.22-3.71-3.39c-1.17-24.4-2.34-48.8-3.51-73.2c-0.11-2.29,1.13-3.54,3.36-3.73
					C148.54,19.19,152,18.89,158.91,18.31z"/>
			</g>
			<g>
				<path class="st1" d="M232.44,37.25c-0.12-2.48-1.36-3.65-3.71-3.49c-6.59,0.44-9.89,0.66-16.48,1.1
					c-2.24,0.15-3.6-1.1-3.71-3.42c-0.26-5.45-0.39-8.18-0.65-13.63c-0.12-2.43,1.12-3.76,3.35-3.95
					c20.07-1.7,40.15-3.41,60.22-5.11c2.35-0.2,3.59,0.99,3.71,3.56c0.28,5.77,0.41,8.65,0.69,14.42c0.12,2.45-0.99,3.94-3.35,4.1
					c-6.59,0.44-9.89,0.66-16.48,1.1c-2.24,0.15-3.47,1.5-3.35,4.02c0.94,19.7,1.89,39.41,2.83,59.11c0.12,2.4-1,3.8-3.36,3.83
					c-5.29,0.06-7.93,0.09-13.22,0.15c-2.24,0.03-3.6-1.33-3.72-3.69C234.29,76,233.36,56.63,232.44,37.25z"/>
			</g>
			<g>
				<path class="st1" d="M341.81,67.41c0.43,8.94-0.07,32.94-28.05,33.2c-27.98,0.26-30.73-22.61-31.13-31.14
					c-0.62-12.93-0.93-19.39-1.55-32.32c-0.41-8.53,0.14-31.56,28.01-33.98c27.87-2.42,30.67,21.42,31.1,30.36
					C340.84,47.08,341.16,53.86,341.81,67.41z M320.27,41.84c-0.49-10.27-1.38-16.5-10.09-15.9c-8.71,0.6-9,6.81-8.52,16.93
					c0.36,7.57,0.54,11.35,0.91,18.92c0.49,10.12,1.37,16.28,10.1,16.04c8.73-0.24,9.02-6.52,8.52-16.79
					C320.82,53.36,320.64,49.52,320.27,41.84z"/>
			</g>
		</g>
	</g>
	<g>
		<g>
			<g>
				<path class="st1" d="M70.14,97.2c1.79,2.75,0.04,5.76-3.62,5.8c-5.38,0.06-8.07,0.09-13.46,0.15c-1.18,0.01-2.27-0.5-2.78-1.43
					c-5.31-8.34-7.97-12.47-13.27-20.6c-0.25-0.3-0.61-0.5-0.97-0.48c-1.89,0.06-2.83,0.1-4.71,0.16c-2.12,0.07-3.59,1.46-3.5,3.3
					c0.31,6.47,0.46,9.7,0.77,16.16c0.09,1.84-1.38,3.19-3.51,3.21c-5.29,0.06-7.93,0.09-13.22,0.15c-2.12,0.02-3.72-1.26-3.81-3.06
					C7.04,79.25,6.02,57.95,5,36.65c-0.09-1.8,1.38-3.24,3.5-3.41c10.3-0.87,15.46-1.31,25.76-2.19
					c20.93-1.78,29.79,5.59,30.63,23.03c0.47,9.89-1.9,16.94-7.96,21.19c-0.46,0.33-0.55,0.87-0.29,1.38
					C62.03,84.77,64.73,88.88,70.14,97.2z M29.81,49.17c-2.12,0.14-3.59,1.57-3.5,3.41c0.15,3.03,0.22,4.54,0.36,7.57
					c0.09,1.84,1.68,3.09,3.81,2.98c2.4-0.13,3.6-0.19,6.01-0.31c5.65-0.3,8.45-1.07,8.14-7.53c-0.31-6.46-3.16-6.9-8.81-6.52
					C33.41,48.93,32.21,49.01,29.81,49.17z"/>
			</g>
			<g>
				<path class="st1" d="M127.51,23.14c2.35-0.2,3.58,0.84,3.69,3.1c0.24,5.08,0.37,7.62,0.61,12.7c0.1,2.16-1.02,3.48-3.37,3.64
					c-11.4,0.76-17.09,1.14-28.49,1.9c-2.24,0.15-3.48,1.33-3.37,3.53c0.07,1.4,0.1,2.11,0.17,3.51c0.1,2.08,1.45,3.22,3.69,3.09
					c7.3-0.42,10.95-0.62,18.25-1.04c2.36-0.13,3.59,0.92,3.7,3.17c0.24,5.03,0.36,7.55,0.6,12.58c0.1,2.13-1.02,3.42-3.38,3.51
					c-7.31,0.28-10.96,0.43-18.27,0.71c-2.24,0.09-3.48,1.23-3.38,3.43c0.07,1.4,0.1,2.11,0.17,3.51c0.1,2.08,1.46,3.25,3.7,3.19
					c11.42-0.33,17.12-0.5,28.54-0.83c2.36-0.07,3.59,1.03,3.7,3.3c0.24,5.08,0.37,7.62,0.61,12.7c0.11,2.27-1.02,3.42-3.38,3.44
					c-19.83,0.22-29.74,0.33-49.57,0.55c-2.24,0.03-3.6-1.14-3.7-3.18c-1.1-22.93-2.2-45.86-3.3-68.79
					c-0.1-2.15,1.14-3.34,3.37-3.52C97.88,25.65,107.76,24.82,127.51,23.14z"/>
			</g>
			<g>
				<path class="st1" d="M160.91,20.31c2-0.17,3.33,0.54,4.25,2.34c7.15,15.06,10.72,22.7,17.89,38.2c0.52,1.05,1.45,0.77,1.4-0.42
					c-0.74-15.35-1.1-23.03-1.84-38.38c-0.11-2.38,1.12-3.68,3.36-3.87c5.27-0.45,7.9-0.67,13.17-1.12c2.35-0.2,3.59,0.91,3.7,3.33
					c1.24,25.81,2.47,51.61,3.71,77.42c0.11,2.3-1.01,3.64-3.37,3.67c-6.94,0.08-10.41,0.12-17.35,0.19
					c-2.01,0.02-3.34-0.79-4.26-2.68c-7.18-15.68-10.76-23.4-17.91-38.63c-0.52-1.03-1.45-0.75-1.4,0.42
					c0.72,15.05,1.08,22.58,1.8,37.63c0.11,2.21-1.01,3.51-3.37,3.53c-5.29,0.06-7.93,0.09-13.22,0.15
					c-2.24,0.03-3.6-1.22-3.71-3.39c-1.17-24.4-2.34-48.8-3.51-73.2c-0.11-2.29,1.13-3.54,3.36-3.73
					C150.54,21.19,153.99,20.89,160.91,20.31z"/>
			</g>
			<g>
				<path class="st1" d="M234.44,39.25c-0.12-2.48-1.36-3.65-3.71-3.49c-6.59,0.44-9.89,0.66-16.48,1.1
					c-2.24,0.15-3.6-1.1-3.71-3.42c-0.26-5.45-0.39-8.18-0.65-13.63c-0.12-2.43,1.12-3.76,3.35-3.95
					c20.07-1.7,40.15-3.41,60.22-5.11c2.35-0.2,3.59,0.99,3.71,3.56c0.28,5.77,0.41,8.65,0.69,14.42c0.12,2.45-0.99,3.94-3.35,4.1
					c-6.59,0.44-9.89,0.66-16.48,1.1c-2.24,0.15-3.47,1.5-3.35,4.02c0.94,19.7,1.89,39.41,2.83,59.11c0.12,2.4-1,3.8-3.36,3.83
					c-5.29,0.06-7.93,0.09-13.22,0.15c-2.24,0.03-3.6-1.33-3.72-3.69C236.29,78,235.36,58.63,234.44,39.25z"/>
			</g>
			<g>
				<path class="st1" d="M343.81,69.41c0.43,8.94-0.07,32.94-28.05,33.2c-27.98,0.26-30.73-22.61-31.13-31.14
					c-0.62-12.93-0.93-19.39-1.55-32.32c-0.41-8.53,0.14-31.56,28.01-33.98c27.87-2.42,30.67,21.42,31.1,30.36
					C342.84,49.08,343.16,55.86,343.81,69.41z M322.27,43.84c-0.49-10.27-1.38-16.5-10.09-15.9c-8.71,0.6-9,6.81-8.52,16.93
					c0.36,7.57,0.54,11.35,0.91,18.92c0.49,10.12,1.37,16.28,10.1,16.04c8.73-0.24,9.02-6.52,8.52-16.79
					C322.82,55.36,322.64,51.52,322.27,43.84z"/>
			</g>
		</g>
	</g>
	<g>
		<g>
			<g>
				<path class="st1" d="M72.14,99.2c1.79,2.75,0.04,5.76-3.62,5.8c-5.38,0.06-8.07,0.09-13.46,0.15c-1.18,0.01-2.27-0.5-2.78-1.43
					c-5.31-8.34-7.97-12.47-13.27-20.6c-0.25-0.3-0.61-0.5-0.97-0.48c-1.89,0.06-2.83,0.1-4.71,0.16c-2.12,0.07-3.59,1.46-3.5,3.3
					c0.31,6.47,0.46,9.7,0.77,16.16c0.09,1.84-1.38,3.19-3.51,3.21c-5.29,0.06-7.93,0.09-13.22,0.15c-2.12,0.02-3.72-1.26-3.81-3.06
					C9.04,81.25,8.02,59.95,7,38.65c-0.09-1.8,1.38-3.24,3.5-3.41c10.3-0.87,15.46-1.31,25.76-2.19
					c20.93-1.78,29.79,5.59,30.63,23.03c0.47,9.89-1.9,16.94-7.96,21.19c-0.46,0.33-0.55,0.87-0.29,1.38
					C64.03,86.77,66.73,90.88,72.14,99.2z M31.81,51.16c-2.12,0.14-3.59,1.57-3.5,3.41c0.15,3.03,0.22,4.54,0.36,7.57
					c0.09,1.84,1.68,3.09,3.81,2.98c2.4-0.13,3.6-0.19,6.01-0.31c5.65-0.3,8.45-1.07,8.14-7.53c-0.31-6.46-3.16-6.9-8.81-6.52
					C35.41,50.92,34.21,51,31.81,51.16z"/>
			</g>
			<g>
				<path class="st1" d="M129.51,25.14c2.35-0.2,3.58,0.84,3.69,3.1c0.24,5.08,0.37,7.62,0.61,12.7c0.1,2.16-1.02,3.48-3.37,3.64
					c-11.4,0.76-17.09,1.14-28.49,1.9c-2.24,0.15-3.48,1.33-3.37,3.53c0.07,1.4,0.1,2.11,0.17,3.51c0.1,2.08,1.45,3.22,3.69,3.09
					c7.3-0.42,10.95-0.62,18.25-1.04c2.36-0.13,3.59,0.92,3.7,3.17c0.24,5.03,0.36,7.55,0.6,12.58c0.1,2.13-1.02,3.42-3.38,3.51
					c-7.31,0.28-10.96,0.43-18.27,0.71c-2.24,0.09-3.48,1.23-3.38,3.43c0.07,1.4,0.1,2.11,0.17,3.51c0.1,2.08,1.46,3.25,3.7,3.19
					c11.42-0.33,17.12-0.5,28.54-0.83c2.36-0.07,3.59,1.03,3.7,3.3c0.24,5.08,0.37,7.62,0.61,12.7c0.11,2.27-1.02,3.42-3.38,3.44
					c-19.83,0.22-29.74,0.33-49.57,0.55c-2.24,0.03-3.6-1.14-3.7-3.18c-1.1-22.93-2.2-45.86-3.3-68.79
					c-0.1-2.15,1.14-3.34,3.37-3.52C99.88,27.65,109.75,26.82,129.51,25.14z"/>
			</g>
			<g>
				<path class="st1" d="M162.91,22.3c2-0.17,3.33,0.54,4.25,2.34c7.15,15.06,10.72,22.7,17.89,38.2c0.52,1.05,1.45,0.77,1.4-0.42
					c-0.74-15.35-1.1-23.03-1.84-38.38c-0.11-2.38,1.12-3.68,3.36-3.87c5.27-0.45,7.9-0.67,13.17-1.12c2.35-0.2,3.59,0.91,3.7,3.33
					c1.24,25.81,2.47,51.61,3.71,77.42c0.11,2.3-1.01,3.64-3.37,3.67c-6.94,0.08-10.41,0.12-17.35,0.19
					c-2.01,0.02-3.34-0.79-4.26-2.68c-7.18-15.68-10.76-23.4-17.91-38.63c-0.52-1.03-1.45-0.75-1.4,0.42
					c0.72,15.05,1.08,22.58,1.8,37.63c0.11,2.21-1.01,3.51-3.37,3.53c-5.29,0.06-7.93,0.09-13.22,0.15
					c-2.24,0.03-3.6-1.22-3.71-3.39c-1.17-24.4-2.34-48.8-3.51-73.2c-0.11-2.29,1.13-3.54,3.36-3.73
					C152.54,23.19,155.99,22.89,162.91,22.3z"/>
			</g>
			<g>
				<path class="st1" d="M236.43,41.25c-0.12-2.48-1.36-3.65-3.71-3.49c-6.59,0.44-9.89,0.66-16.48,1.1
					c-2.24,0.15-3.6-1.1-3.71-3.42c-0.26-5.45-0.39-8.18-0.65-13.63c-0.12-2.43,1.12-3.76,3.35-3.95
					c20.07-1.7,40.15-3.41,60.22-5.11c2.35-0.2,3.59,0.99,3.71,3.56c0.28,5.77,0.41,8.65,0.69,14.42c0.12,2.45-0.99,3.94-3.35,4.1
					c-6.59,0.44-9.89,0.66-16.48,1.1c-2.24,0.15-3.47,1.5-3.35,4.02c0.94,19.7,1.89,39.41,2.83,59.11c0.12,2.4-1,3.8-3.36,3.83
					c-5.29,0.06-7.93,0.09-13.22,0.15c-2.24,0.03-3.6-1.33-3.72-3.69C238.29,80,237.36,60.62,236.43,41.25z"/>
			</g>
			<g>
				<path class="st1" d="M345.81,71.41c0.43,8.94-0.07,32.94-28.05,33.2c-27.98,0.26-30.73-22.61-31.13-31.14
					c-0.62-12.93-0.93-19.39-1.55-32.32c-0.41-8.53,0.14-31.56,28.01-33.98c27.87-2.42,30.67,21.42,31.1,30.36
					C344.83,51.08,345.16,57.86,345.81,71.41z M324.27,45.84c-0.49-10.27-1.38-16.5-10.09-15.9c-8.71,0.6-9,6.81-8.52,16.93
					c0.36,7.57,0.54,11.35,0.91,18.92c0.49,10.12,1.37,16.28,10.1,16.04c8.73-0.24,9.02-6.52,8.52-16.79
					C324.82,57.36,324.64,53.52,324.27,45.84z"/>
			</g>
		</g>
	</g>
	<g>
		<g>
			<g>
				<path class="st1" d="M74.14,101.2c1.79,2.75,0.04,5.76-3.62,5.8c-5.38,0.06-8.07,0.09-13.46,0.15c-1.18,0.01-2.27-0.5-2.78-1.43
					c-5.31-8.34-7.97-12.47-13.27-20.6c-0.25-0.3-0.61-0.5-0.97-0.48c-1.89,0.06-2.83,0.1-4.71,0.16c-2.12,0.07-3.59,1.46-3.5,3.3
					c0.31,6.47,0.46,9.7,0.77,16.16c0.09,1.84-1.38,3.19-3.51,3.21c-5.29,0.06-7.93,0.09-13.22,0.15c-2.12,0.02-3.72-1.26-3.81-3.06
					c-1.02-21.3-2.04-42.6-3.06-63.89c-0.09-1.8,1.38-3.24,3.5-3.41c10.3-0.87,15.46-1.31,25.76-2.19
					c20.93-1.78,29.79,5.59,30.63,23.03c0.47,9.89-1.9,16.94-7.96,21.19c-0.46,0.33-0.55,0.87-0.29,1.38
					C66.03,88.77,68.73,92.88,74.14,101.2z M33.81,53.16c-2.12,0.14-3.59,1.57-3.5,3.41c0.15,3.03,0.22,4.54,0.36,7.57
					c0.09,1.84,1.68,3.09,3.81,2.98c2.4-0.13,3.6-0.19,6.01-0.31c5.65-0.3,8.45-1.07,8.14-7.53c-0.31-6.46-3.16-6.9-8.81-6.52
					C37.41,52.92,36.21,53,33.81,53.16z"/>
			</g>
			<g>
				<path class="st1" d="M131.51,27.14c2.35-0.2,3.58,0.84,3.69,3.1c0.24,5.08,0.37,7.62,0.61,12.7c0.1,2.16-1.02,3.48-3.37,3.64
					c-11.4,0.76-17.09,1.14-28.49,1.9c-2.24,0.15-3.48,1.33-3.37,3.53c0.07,1.4,0.1,2.11,0.17,3.51c0.1,2.08,1.45,3.22,3.69,3.09
					c7.3-0.42,10.95-0.62,18.25-1.04c2.36-0.13,3.59,0.92,3.7,3.17c0.24,5.03,0.36,7.55,0.6,12.58c0.1,2.13-1.02,3.42-3.38,3.51
					c-7.31,0.28-10.96,0.43-18.27,0.71c-2.24,0.09-3.48,1.23-3.38,3.43c0.07,1.4,0.1,2.11,0.17,3.51c0.1,2.08,1.46,3.25,3.7,3.19
					c11.42-0.33,17.12-0.5,28.54-0.83c2.36-0.07,3.59,1.03,3.7,3.3c0.24,5.08,0.37,7.62,0.61,12.7c0.11,2.27-1.02,3.42-3.38,3.44
					c-19.83,0.22-29.74,0.33-49.57,0.55c-2.24,0.03-3.6-1.14-3.7-3.18c-1.1-22.93-2.2-45.86-3.3-68.79
					c-0.1-2.15,1.14-3.34,3.37-3.52C101.87,29.65,111.75,28.81,131.51,27.14z"/>
			</g>
			<g>
				<path class="st1" d="M164.91,24.3c2-0.17,3.33,0.54,4.25,2.34c7.15,15.06,10.72,22.7,17.89,38.2c0.52,1.05,1.45,0.77,1.4-0.42
					c-0.74-15.35-1.1-23.03-1.84-38.38c-0.11-2.38,1.12-3.68,3.36-3.87c5.27-0.45,7.9-0.67,13.17-1.12c2.35-0.2,3.59,0.91,3.7,3.33
					c1.24,25.81,2.47,51.61,3.71,77.42c0.11,2.3-1.01,3.64-3.37,3.67c-6.94,0.08-10.41,0.12-17.35,0.19
					c-2.01,0.02-3.34-0.79-4.26-2.68c-7.18-15.68-10.76-23.4-17.91-38.63c-0.52-1.03-1.45-0.75-1.4,0.42
					c0.72,15.05,1.08,22.58,1.8,37.63c0.11,2.21-1.01,3.51-3.37,3.53c-5.29,0.06-7.93,0.09-13.22,0.15
					c-2.24,0.03-3.6-1.22-3.71-3.39c-1.17-24.4-2.34-48.8-3.51-73.2c-0.11-2.29,1.13-3.54,3.36-3.73
					C154.53,25.18,157.99,24.89,164.91,24.3z"/>
			</g>
			<g>
				<path class="st1" d="M238.43,43.25c-0.12-2.48-1.36-3.65-3.71-3.49c-6.59,0.44-9.89,0.66-16.48,1.1
					c-2.24,0.15-3.6-1.1-3.71-3.42c-0.26-5.45-0.39-8.18-0.65-13.63c-0.12-2.43,1.12-3.76,3.35-3.95
					c20.07-1.7,40.15-3.41,60.22-5.11c2.35-0.2,3.59,0.99,3.71,3.56c0.28,5.77,0.41,8.65,0.69,14.42c0.12,2.45-0.99,3.94-3.35,4.1
					c-6.59,0.44-9.89,0.66-16.48,1.1c-2.24,0.15-3.47,1.5-3.35,4.02c0.94,19.7,1.89,39.41,2.83,59.11c0.12,2.4-1,3.8-3.36,3.83
					c-5.29,0.06-7.93,0.09-13.22,0.15c-2.24,0.03-3.6-1.33-3.72-3.69C240.29,82,239.36,62.62,238.43,43.25z"/>
			</g>
			<g>
				<path class="st1" d="M347.81,73.4c0.43,8.94-0.07,32.94-28.05,33.2c-27.98,0.26-30.73-22.61-31.13-31.14
					c-0.62-12.93-0.93-19.39-1.55-32.32c-0.41-8.53,0.14-31.56,28.01-33.98c27.87-2.42,30.67,21.42,31.1,30.36
					C346.83,53.08,347.16,59.85,347.81,73.4z M326.27,47.84c-0.49-10.27-1.38-16.5-10.09-15.9c-8.71,0.6-9,6.81-8.52,16.93
					c0.36,7.57,0.54,11.35,0.91,18.92c0.49,10.12,1.37,16.28,10.1,16.04c8.73-0.24,9.02-6.52,8.52-16.79
					C326.82,59.36,326.64,55.52,326.27,47.84z"/>
			</g>
		</g>
	</g>
	<g>
		<g>
			<g>
				<path class="st1" d="M76.13,103.2c1.79,2.75,0.04,5.76-3.62,5.8c-5.38,0.06-8.07,0.09-13.46,0.15c-1.18,0.01-2.27-0.5-2.78-1.43
					c-5.31-8.34-7.97-12.47-13.27-20.6c-0.25-0.3-0.61-0.5-0.97-0.48c-1.89,0.06-2.83,0.1-4.71,0.16c-2.12,0.07-3.59,1.46-3.5,3.3
					c0.31,6.47,0.46,9.7,0.77,16.16c0.09,1.84-1.38,3.19-3.51,3.21c-5.29,0.06-7.93,0.09-13.22,0.15c-2.12,0.02-3.72-1.26-3.81-3.06
					c-1.02-21.3-2.04-42.6-3.06-63.89c-0.09-1.8,1.38-3.24,3.5-3.41c10.3-0.87,15.46-1.31,25.76-2.19
					c20.93-1.78,29.79,5.59,30.63,23.03c0.47,9.89-1.9,16.94-7.96,21.19c-0.46,0.33-0.55,0.87-0.29,1.38
					C68.03,90.77,70.73,94.87,76.13,103.2z M35.81,55.16c-2.12,0.14-3.59,1.57-3.5,3.41c0.15,3.03,0.22,4.54,0.36,7.57
					c0.09,1.84,1.68,3.09,3.81,2.98c2.4-0.13,3.6-0.19,6.01-0.31c5.65-0.3,8.45-1.07,8.14-7.53c-0.31-6.46-3.16-6.9-8.81-6.52
					C39.41,54.92,38.21,55,35.81,55.16z"/>
			</g>
			<g>
				<path class="st1" d="M133.51,29.14c2.35-0.2,3.58,0.84,3.69,3.1c0.24,5.08,0.37,7.62,0.61,12.7c0.1,2.16-1.02,3.48-3.37,3.64
					c-11.4,0.76-17.09,1.14-28.49,1.9c-2.24,0.15-3.48,1.33-3.37,3.53c0.07,1.4,0.1,2.11,0.17,3.51c0.1,2.08,1.45,3.22,3.69,3.09
					c7.3-0.42,10.95-0.62,18.25-1.04c2.36-0.13,3.59,0.92,3.7,3.17c0.24,5.03,0.36,7.55,0.6,12.58c0.1,2.13-1.02,3.42-3.38,3.51
					c-7.31,0.28-10.96,0.43-18.27,0.71c-2.24,0.09-3.48,1.23-3.38,3.43c0.07,1.4,0.1,2.11,0.17,3.51c0.1,2.08,1.46,3.25,3.7,3.19
					c11.42-0.33,17.12-0.5,28.54-0.83c2.36-0.07,3.59,1.03,3.7,3.3c0.24,5.08,0.37,7.62,0.61,12.7c0.11,2.27-1.02,3.42-3.38,3.44
					c-19.83,0.22-29.74,0.33-49.57,0.55c-2.24,0.03-3.6-1.14-3.7-3.18c-1.1-22.93-2.2-45.86-3.3-68.79
					c-0.1-2.15,1.14-3.34,3.37-3.52C103.87,31.65,113.75,30.81,133.51,29.14z"/>
			</g>
			<g>
				<path class="st1" d="M166.91,26.3c2-0.17,3.33,0.54,4.25,2.34c7.15,15.06,10.72,22.7,17.89,38.2c0.52,1.05,1.45,0.77,1.4-0.42
					c-0.74-15.35-1.1-23.03-1.84-38.38c-0.11-2.38,1.12-3.68,3.36-3.87c5.27-0.45,7.9-0.67,13.17-1.12c2.35-0.2,3.59,0.91,3.7,3.33
					c1.24,25.81,2.47,51.61,3.71,77.42c0.11,2.3-1.01,3.64-3.37,3.67c-6.94,0.08-10.41,0.12-17.35,0.19
					c-2.01,0.02-3.34-0.79-4.26-2.68c-7.18-15.68-10.76-23.4-17.91-38.63c-0.52-1.03-1.45-0.75-1.4,0.42
					c0.72,15.05,1.08,22.58,1.8,37.63c0.11,2.21-1.01,3.51-3.37,3.53c-5.29,0.06-7.93,0.09-13.22,0.15
					c-2.24,0.03-3.6-1.22-3.71-3.39c-1.17-24.4-2.34-48.8-3.51-73.2c-0.11-2.29,1.13-3.54,3.36-3.73
					C156.53,27.18,159.99,26.89,166.91,26.3z"/>
			</g>
			<g>
				<path class="st1" d="M240.43,45.25c-0.12-2.48-1.36-3.65-3.71-3.49c-6.59,0.44-9.89,0.66-16.48,1.1
					c-2.24,0.15-3.6-1.1-3.71-3.42c-0.26-5.45-0.39-8.18-0.65-13.63c-0.12-2.43,1.12-3.76,3.35-3.95
					c20.07-1.7,40.15-3.41,60.22-5.11c2.35-0.2,3.59,0.99,3.71,3.56c0.28,5.77,0.41,8.65,0.69,14.42c0.12,2.45-0.99,3.94-3.35,4.1
					c-6.59,0.44-9.89,0.66-16.48,1.1c-2.24,0.15-3.47,1.5-3.35,4.02c0.94,19.7,1.89,39.41,2.83,59.11c0.12,2.4-1,3.8-3.36,3.83
					c-5.29,0.06-7.93,0.09-13.22,0.15c-2.24,0.03-3.6-1.33-3.72-3.69C242.29,84,241.36,64.62,240.43,45.25z"/>
			</g>
			<g>
				<path class="st1" d="M349.81,75.4c0.43,8.94-0.07,32.94-28.05,33.2c-27.98,0.26-30.73-22.61-31.13-31.14
					c-0.62-12.93-0.93-19.39-1.55-32.32c-0.41-8.53,0.14-31.56,28.01-33.98c27.87-2.42,30.67,21.42,31.1,30.36
					C348.83,55.08,349.16,61.85,349.81,75.4z M328.27,49.84c-0.49-10.27-1.38-16.5-10.09-15.9c-8.71,0.6-9,6.81-8.52,16.93
					c0.36,7.57,0.54,11.35,0.91,18.92c0.49,10.12,1.37,16.28,10.1,16.04c8.73-0.24,9.02-6.52,8.52-16.79
					C328.82,61.36,328.64,57.52,328.27,49.84z"/>
			</g>
		</g>
	</g>
	<g>
		<g>
			<g>
				<path class="st1" d="M78.13,105.19c1.79,2.75,0.04,5.76-3.62,5.8c-5.38,0.06-8.07,0.09-13.46,0.15
					c-1.18,0.01-2.27-0.5-2.78-1.43c-5.31-8.34-7.97-12.47-13.27-20.6c-0.25-0.3-0.61-0.5-0.97-0.48c-1.89,0.06-2.83,0.1-4.71,0.16
					c-2.12,0.07-3.59,1.46-3.5,3.3c0.31,6.47,0.46,9.7,0.77,16.16c0.09,1.84-1.38,3.19-3.51,3.21c-5.29,0.06-7.93,0.09-13.22,0.15
					c-2.12,0.02-3.72-1.26-3.81-3.06c-1.02-21.3-2.04-42.6-3.06-63.89c-0.09-1.8,1.38-3.24,3.5-3.41
					c10.3-0.87,15.46-1.31,25.76-2.19c20.93-1.78,29.79,5.59,30.63,23.03c0.47,9.89-1.9,16.94-7.96,21.19
					c-0.46,0.33-0.55,0.87-0.29,1.38C70.03,92.76,72.73,96.87,78.13,105.19z M37.81,57.16c-2.12,0.14-3.59,1.57-3.5,3.41
					c0.15,3.03,0.22,4.54,0.36,7.57c0.09,1.84,1.68,3.09,3.81,2.98c2.4-0.13,3.6-0.19,6.01-0.31c5.65-0.3,8.45-1.07,8.14-7.53
					c-0.31-6.46-3.16-6.9-8.81-6.52C41.41,56.92,40.21,57,37.81,57.16z"/>
			</g>
			<g>
				<path class="st1" d="M135.51,31.14c2.35-0.2,3.58,0.84,3.69,3.1c0.24,5.08,0.37,7.62,0.61,12.7c0.1,2.16-1.02,3.48-3.37,3.64
					c-11.4,0.76-17.09,1.14-28.49,1.9c-2.24,0.15-3.48,1.33-3.37,3.53c0.07,1.4,0.1,2.11,0.17,3.51c0.1,2.08,1.45,3.22,3.69,3.09
					c7.3-0.42,10.95-0.62,18.25-1.04c2.36-0.13,3.59,0.92,3.7,3.17c0.24,5.03,0.36,7.55,0.6,12.58c0.1,2.13-1.02,3.42-3.38,3.51
					c-7.31,0.28-10.96,0.43-18.27,0.71c-2.24,0.09-3.48,1.23-3.38,3.43c0.07,1.4,0.1,2.11,0.17,3.51c0.1,2.08,1.46,3.25,3.7,3.19
					c11.42-0.33,17.12-0.5,28.54-0.83c2.36-0.07,3.59,1.03,3.7,3.3c0.24,5.08,0.37,7.62,0.61,12.7c0.11,2.27-1.02,3.42-3.38,3.44
					c-19.83,0.22-29.74,0.33-49.57,0.55c-2.24,0.03-3.6-1.14-3.7-3.18c-1.1-22.93-2.2-45.86-3.3-68.79
					c-0.1-2.15,1.14-3.34,3.37-3.52C105.87,33.65,115.75,32.81,135.51,31.14z"/>
			</g>
			<g>
				<path class="st1" d="M168.91,28.3c2-0.17,3.33,0.54,4.25,2.34c7.15,15.06,10.72,22.7,17.89,38.2c0.52,1.05,1.45,0.77,1.4-0.42
					c-0.74-15.35-1.1-23.03-1.84-38.38c-0.11-2.38,1.12-3.68,3.36-3.87c5.27-0.45,7.9-0.67,13.17-1.12c2.35-0.2,3.59,0.91,3.7,3.33
					c1.24,25.81,2.47,51.61,3.71,77.42c0.11,2.3-1.01,3.64-3.37,3.67c-6.94,0.08-10.41,0.12-17.35,0.19
					c-2.01,0.02-3.34-0.79-4.26-2.68c-7.18-15.68-10.76-23.4-17.91-38.63c-0.52-1.03-1.45-0.75-1.4,0.42
					c0.72,15.05,1.08,22.58,1.8,37.63c0.11,2.21-1.01,3.51-3.37,3.53c-5.29,0.06-7.93,0.09-13.22,0.15
					c-2.24,0.03-3.6-1.22-3.71-3.39c-1.17-24.4-2.34-48.8-3.51-73.2c-0.11-2.29,1.13-3.54,3.36-3.73
					C158.53,29.18,161.99,28.89,168.91,28.3z"/>
			</g>
			<g>
				<path class="st1" d="M242.43,47.25c-0.12-2.48-1.36-3.65-3.71-3.49c-6.59,0.44-9.89,0.66-16.48,1.1
					c-2.24,0.15-3.6-1.1-3.71-3.42c-0.26-5.45-0.39-8.18-0.65-13.63c-0.12-2.43,1.12-3.76,3.35-3.95
					c20.07-1.7,40.15-3.41,60.22-5.11c2.35-0.2,3.59,0.99,3.71,3.56c0.28,5.77,0.41,8.65,0.69,14.42c0.12,2.45-0.99,3.94-3.35,4.1
					c-6.59,0.44-9.89,0.66-16.48,1.1c-2.24,0.15-3.47,1.5-3.35,4.02c0.94,19.7,1.89,39.41,2.83,59.11c0.12,2.4-1,3.8-3.36,3.83
					c-5.29,0.06-7.93,0.09-13.22,0.15c-2.24,0.03-3.6-1.33-3.72-3.69C244.29,85.99,243.36,66.62,242.43,47.25z"/>
			</g>
			<g>
				<path class="st1" d="M351.81,77.4c0.43,8.94-0.07,32.94-28.05,33.2c-27.98,0.26-30.73-22.61-31.13-31.14
					c-0.62-12.93-0.93-19.39-1.55-32.32c-0.41-8.53,0.14-31.56,28.01-33.98c27.87-2.42,30.67,21.42,31.1,30.36
					C350.83,57.08,351.16,63.85,351.81,77.4z M330.27,51.84c-0.49-10.27-1.38-16.5-10.09-15.9c-8.71,0.6-9,6.81-8.52,16.93
					c0.36,7.57,0.54,11.35,0.91,18.92c0.49,10.12,1.37,16.28,10.1,16.04c8.73-0.24,9.02-6.52,8.52-16.79
					C330.82,63.36,330.64,59.52,330.27,51.84z"/>
			</g>
		</g>
	</g>
	<g>
		<g>
			<g>
				<path class="st1" d="M80.13,107.19c1.79,2.75,0.04,5.76-3.62,5.8c-5.38,0.06-8.07,0.09-13.46,0.15
					c-1.18,0.01-2.27-0.5-2.78-1.43c-5.31-8.34-7.97-12.47-13.27-20.6c-0.25-0.3-0.61-0.5-0.97-0.48c-1.89,0.06-2.83,0.1-4.71,0.16
					c-2.12,0.07-3.59,1.46-3.5,3.3c0.31,6.47,0.46,9.7,0.77,16.16c0.09,1.84-1.38,3.19-3.51,3.21c-5.29,0.06-7.93,0.09-13.22,0.15
					c-2.12,0.02-3.72-1.26-3.81-3.06c-1.02-21.3-2.04-42.6-3.06-63.89c-0.09-1.8,1.38-3.24,3.5-3.41
					c10.3-0.87,15.46-1.31,25.76-2.19c20.93-1.78,29.79,5.59,30.63,23.03c0.47,9.89-1.9,16.94-7.96,21.19
					c-0.46,0.33-0.55,0.87-0.29,1.38C72.03,94.76,74.73,98.87,80.13,107.19z M39.81,59.16c-2.12,0.14-3.59,1.57-3.5,3.41
					c0.15,3.03,0.22,4.54,0.36,7.57c0.09,1.84,1.68,3.09,3.81,2.98c2.4-0.13,3.6-0.19,6.01-0.31c5.65-0.3,8.45-1.07,8.14-7.53
					c-0.31-6.46-3.16-6.9-8.81-6.52C43.41,58.92,42.21,59,39.81,59.16z"/>
			</g>
			<g>
				<path class="st1" d="M137.51,33.14c2.35-0.2,3.58,0.84,3.69,3.1c0.24,5.08,0.37,7.62,0.61,12.7c0.1,2.16-1.02,3.48-3.37,3.64
					c-11.4,0.76-17.09,1.14-28.49,1.9c-2.24,0.15-3.48,1.33-3.37,3.53c0.07,1.4,0.1,2.11,0.17,3.51c0.1,2.08,1.45,3.22,3.69,3.09
					c7.3-0.42,10.95-0.62,18.25-1.04c2.36-0.13,3.59,0.92,3.7,3.17c0.24,5.03,0.36,7.55,0.6,12.58c0.1,2.13-1.02,3.42-3.38,3.51
					c-7.31,0.28-10.96,0.43-18.27,0.71c-2.24,0.09-3.48,1.23-3.38,3.43c0.07,1.4,0.1,2.11,0.17,3.51c0.1,2.08,1.46,3.25,3.7,3.19
					c11.42-0.33,17.12-0.5,28.54-0.83c2.36-0.07,3.59,1.03,3.7,3.3c0.24,5.08,0.37,7.62,0.61,12.7c0.11,2.27-1.02,3.42-3.38,3.44
					c-19.83,0.22-29.74,0.33-49.57,0.55c-2.24,0.03-3.6-1.14-3.7-3.18c-1.1-22.93-2.2-45.86-3.3-68.79
					c-0.1-2.15,1.14-3.34,3.37-3.52C107.87,35.65,117.75,34.81,137.51,33.14z"/>
			</g>
			<g>
				<path class="st1" d="M170.91,30.3c2-0.17,3.33,0.54,4.25,2.34c7.15,15.06,10.72,22.7,17.89,38.2c0.52,1.05,1.45,0.77,1.4-0.42
					c-0.74-15.35-1.1-23.03-1.84-38.38c-0.11-2.38,1.12-3.68,3.36-3.87c5.27-0.45,7.9-0.67,13.17-1.12c2.35-0.2,3.59,0.91,3.7,3.33
					c1.24,25.81,2.47,51.61,3.71,77.42c0.11,2.3-1.01,3.64-3.37,3.67c-6.94,0.08-10.41,0.12-17.35,0.19
					c-2.01,0.02-3.34-0.79-4.26-2.68c-7.18-15.68-10.76-23.4-17.91-38.63c-0.52-1.03-1.45-0.75-1.4,0.42
					c0.72,15.05,1.08,22.58,1.8,37.63c0.11,2.21-1.01,3.51-3.37,3.53c-5.29,0.06-7.93,0.09-13.22,0.15
					c-2.24,0.03-3.6-1.22-3.71-3.39c-1.17-24.4-2.34-48.8-3.51-73.2c-0.11-2.29,1.13-3.54,3.36-3.73
					C160.53,31.18,163.99,30.89,170.91,30.3z"/>
			</g>
			<g>
				<path class="st1" d="M244.43,49.25c-0.12-2.48-1.36-3.65-3.71-3.49c-6.59,0.44-9.89,0.66-16.48,1.1
					c-2.24,0.15-3.6-1.1-3.71-3.42c-0.26-5.45-0.39-8.18-0.65-13.63c-0.12-2.43,1.12-3.76,3.35-3.95
					c20.07-1.7,40.15-3.41,60.22-5.11c2.35-0.2,3.59,0.99,3.71,3.56c0.28,5.77,0.41,8.65,0.69,14.42c0.12,2.45-0.99,3.94-3.35,4.1
					c-6.59,0.44-9.89,0.66-16.48,1.1c-2.24,0.15-3.47,1.5-3.35,4.02c0.94,19.7,1.89,39.41,2.83,59.11c0.12,2.4-1,3.8-3.36,3.83
					c-5.29,0.06-7.93,0.09-13.22,0.15c-2.24,0.03-3.6-1.33-3.72-3.69C246.29,87.99,245.36,68.62,244.43,49.25z"/>
			</g>
			<g>
				<path class="st1" d="M353.81,79.4c0.43,8.94-0.07,32.94-28.05,33.2c-27.98,0.26-30.73-22.61-31.13-31.14
					c-0.62-12.93-0.93-19.39-1.55-32.32c-0.41-8.53,0.14-31.56,28.01-33.98c27.87-2.42,30.67,21.42,31.1,30.36
					C352.83,59.08,353.16,65.85,353.81,79.4z M332.27,53.83c-0.49-10.27-1.38-16.5-10.09-15.9c-8.71,0.6-9,6.81-8.52,16.93
					c0.36,7.57,0.54,11.35,0.91,18.92c0.49,10.12,1.37,16.28,10.1,16.04c8.73-0.24,9.02-6.52,8.52-16.79
					C332.82,65.36,332.64,61.52,332.27,53.83z"/>
			</g>
		</g>
	</g>
	<g>
		<g>
			<g>
				<path class="st1" d="M82.13,109.19c1.79,2.75,0.04,5.76-3.62,5.8c-5.38,0.06-8.07,0.09-13.46,0.15
					c-1.18,0.01-2.27-0.5-2.78-1.43c-5.31-8.34-7.97-12.47-13.27-20.6c-0.25-0.3-0.61-0.5-0.97-0.48c-1.89,0.06-2.83,0.1-4.71,0.16
					c-2.12,0.07-3.59,1.46-3.5,3.3c0.31,6.47,0.46,9.7,0.77,16.16c0.09,1.84-1.38,3.19-3.51,3.21c-5.29,0.06-7.93,0.09-13.22,0.15
					c-2.12,0.02-3.72-1.26-3.81-3.06c-1.02-21.3-2.04-42.6-3.06-63.89c-0.09-1.8,1.38-3.24,3.5-3.41
					c10.3-0.87,15.46-1.31,25.76-2.19c20.93-1.78,29.79,5.59,30.63,23.03c0.47,9.89-1.9,16.94-7.96,21.19
					c-0.46,0.33-0.55,0.87-0.29,1.38C74.03,96.76,76.73,100.87,82.13,109.19z M41.81,61.16c-2.12,0.14-3.59,1.57-3.5,3.41
					c0.15,3.03,0.22,4.54,0.36,7.57c0.09,1.84,1.68,3.09,3.81,2.98c2.4-0.13,3.6-0.19,6.01-0.31c5.65-0.3,8.45-1.07,8.14-7.53
					c-0.31-6.46-3.16-6.9-8.81-6.52C45.41,60.92,44.21,61,41.81,61.16z"/>
			</g>
			<g>
				<path class="st1" d="M139.51,35.13c2.35-0.2,3.58,0.84,3.69,3.1c0.24,5.08,0.37,7.62,0.61,12.7c0.1,2.16-1.02,3.48-3.37,3.64
					c-11.4,0.76-17.09,1.14-28.49,1.9c-2.24,0.15-3.48,1.33-3.37,3.53c0.07,1.4,0.1,2.11,0.17,3.51c0.1,2.08,1.45,3.22,3.69,3.09
					c7.3-0.42,10.95-0.62,18.25-1.04c2.36-0.13,3.59,0.92,3.7,3.17c0.24,5.03,0.36,7.55,0.6,12.58c0.1,2.13-1.02,3.42-3.38,3.51
					c-7.31,0.28-10.96,0.43-18.27,0.71c-2.24,0.09-3.48,1.23-3.38,3.43c0.07,1.4,0.1,2.11,0.17,3.51c0.1,2.08,1.46,3.25,3.7,3.19
					c11.42-0.33,17.12-0.5,28.54-0.83c2.36-0.07,3.59,1.03,3.7,3.3c0.24,5.08,0.37,7.62,0.61,12.7c0.11,2.27-1.02,3.42-3.38,3.44
					c-19.83,0.22-29.74,0.33-49.57,0.55c-2.24,0.03-3.6-1.14-3.7-3.18c-1.1-22.93-2.2-45.86-3.3-68.79
					c-0.1-2.15,1.14-3.34,3.37-3.52C109.87,37.65,119.75,36.81,139.51,35.13z"/>
			</g>
			<g>
				<path class="st1" d="M172.9,32.3c2-0.17,3.33,0.54,4.25,2.34c7.15,15.06,10.72,22.7,17.89,38.2c0.52,1.05,1.45,0.77,1.4-0.42
					c-0.74-15.35-1.1-23.03-1.84-38.38c-0.11-2.38,1.12-3.68,3.36-3.87c5.27-0.45,7.9-0.67,13.17-1.12c2.35-0.2,3.59,0.91,3.7,3.33
					c1.24,25.81,2.47,51.61,3.71,77.42c0.11,2.3-1.01,3.64-3.37,3.67c-6.94,0.08-10.41,0.12-17.35,0.19
					c-2.01,0.02-3.34-0.79-4.26-2.68c-7.18-15.68-10.76-23.4-17.91-38.63c-0.52-1.03-1.45-0.75-1.4,0.42
					c0.72,15.05,1.08,22.58,1.8,37.63c0.11,2.21-1.01,3.51-3.37,3.53c-5.29,0.06-7.93,0.09-13.22,0.15
					c-2.24,0.03-3.6-1.22-3.71-3.39c-1.17-24.4-2.34-48.8-3.51-73.2c-0.11-2.29,1.13-3.54,3.36-3.73
					C162.53,33.18,165.99,32.89,172.9,32.3z"/>
			</g>
			<g>
				<path class="st1" d="M246.43,51.25c-0.12-2.48-1.36-3.65-3.71-3.49c-6.59,0.44-9.89,0.66-16.48,1.1
					c-2.24,0.15-3.6-1.1-3.71-3.42c-0.26-5.45-0.39-8.18-0.65-13.63c-0.12-2.43,1.12-3.76,3.35-3.95
					c20.07-1.7,40.15-3.41,60.22-5.11c2.35-0.2,3.59,0.99,3.71,3.56c0.28,5.77,0.41,8.65,0.69,14.42c0.12,2.45-0.99,3.94-3.35,4.1
					c-6.59,0.44-9.89,0.66-16.48,1.1c-2.24,0.15-3.47,1.5-3.35,4.02c0.94,19.7,1.89,39.41,2.83,59.11c0.12,2.4-1,3.8-3.36,3.83
					c-5.29,0.06-7.93,0.09-13.22,0.15c-2.24,0.03-3.6-1.33-3.72-3.69C248.29,89.99,247.36,70.62,246.43,51.25z"/>
			</g>
			<g>
				<path class="st1" d="M355.8,81.4c0.43,8.94-0.07,32.94-28.05,33.2c-27.98,0.26-30.73-22.61-31.13-31.14
					c-0.62-12.93-0.93-19.39-1.55-32.32c-0.41-8.53,0.14-31.56,28.01-33.98c27.87-2.42,30.67,21.42,31.1,30.36
					C354.83,61.08,355.15,67.85,355.8,81.4z M334.27,55.83c-0.49-10.27-1.38-16.5-10.09-15.9c-8.71,0.6-9,6.81-8.52,16.93
					c0.36,7.57,0.54,11.35,0.91,18.92c0.49,10.12,1.37,16.28,10.1,16.04c8.73-0.24,9.02-6.52,8.52-16.79
					C334.82,67.36,334.63,63.51,334.27,55.83z"/>
			</g>
		</g>
	</g>
	<g>
		<g>
			<g>
				<path class="st1" d="M84.13,111.19c1.79,2.75,0.04,5.76-3.62,5.8c-5.38,0.06-8.07,0.09-13.46,0.15
					c-1.18,0.01-2.27-0.5-2.78-1.43c-5.31-8.34-7.97-12.47-13.27-20.6c-0.25-0.3-0.61-0.5-0.97-0.48c-1.89,0.06-2.83,0.1-4.71,0.16
					c-2.12,0.07-3.59,1.46-3.5,3.3c0.31,6.47,0.46,9.7,0.77,16.16c0.09,1.84-1.38,3.19-3.51,3.21c-5.29,0.06-7.93,0.09-13.22,0.15
					c-2.12,0.02-3.72-1.26-3.81-3.06c-1.02-21.3-2.04-42.6-3.06-63.89c-0.09-1.8,1.38-3.24,3.5-3.41
					c10.3-0.87,15.46-1.31,25.76-2.19c20.93-1.78,29.79,5.59,30.63,23.03c0.47,9.89-1.9,16.94-7.96,21.19
					c-0.46,0.33-0.55,0.87-0.29,1.38C76.03,98.76,78.73,102.87,84.13,111.19z M43.8,63.16c-2.12,0.14-3.59,1.57-3.5,3.41
					c0.15,3.03,0.22,4.54,0.36,7.57c0.09,1.84,1.68,3.09,3.81,2.98c2.4-0.13,3.6-0.19,6.01-0.31c5.65-0.3,8.45-1.07,8.14-7.53
					c-0.31-6.46-3.16-6.9-8.81-6.52C47.41,62.92,46.21,63,43.8,63.16z"/>
			</g>
			<g>
				<path class="st1" d="M141.51,37.13c2.35-0.2,3.58,0.84,3.69,3.1c0.24,5.08,0.37,7.62,0.61,12.7c0.1,2.16-1.02,3.48-3.37,3.64
					c-11.4,0.76-17.09,1.14-28.49,1.9c-2.24,0.15-3.48,1.33-3.37,3.53c0.07,1.4,0.1,2.11,0.17,3.51c0.1,2.08,1.45,3.22,3.69,3.09
					c7.3-0.42,10.95-0.62,18.25-1.04c2.36-0.13,3.59,0.92,3.7,3.17c0.24,5.03,0.36,7.55,0.6,12.58c0.1,2.13-1.02,3.42-3.38,3.51
					c-7.31,0.28-10.96,0.43-18.27,0.71c-2.24,0.09-3.48,1.23-3.38,3.43c0.07,1.4,0.1,2.11,0.17,3.51c0.1,2.08,1.46,3.25,3.7,3.19
					c11.42-0.33,17.12-0.5,28.54-0.83c2.36-0.07,3.59,1.03,3.7,3.3c0.24,5.08,0.37,7.62,0.61,12.7c0.11,2.27-1.02,3.42-3.38,3.44
					c-19.83,0.22-29.74,0.33-49.57,0.55c-2.24,0.03-3.6-1.14-3.7-3.18c-1.1-22.93-2.2-45.86-3.3-68.79
					c-0.1-2.15,1.14-3.34,3.37-3.52C111.87,39.65,121.75,38.81,141.51,37.13z"/>
			</g>
			<g>
				<path class="st1" d="M174.9,34.3c2-0.17,3.33,0.54,4.25,2.34c7.15,15.06,10.72,22.7,17.89,38.2c0.52,1.05,1.45,0.77,1.4-0.42
					c-0.74-15.35-1.1-23.03-1.84-38.38c-0.11-2.38,1.12-3.68,3.36-3.87c5.27-0.45,7.9-0.67,13.17-1.12c2.35-0.2,3.59,0.91,3.7,3.33
					c1.24,25.81,2.47,51.61,3.71,77.42c0.11,2.3-1.01,3.64-3.37,3.67c-6.94,0.08-10.41,0.12-17.35,0.19
					c-2.01,0.02-3.34-0.79-4.26-2.68c-7.18-15.68-10.76-23.4-17.91-38.63c-0.52-1.03-1.45-0.75-1.4,0.42
					c0.72,15.05,1.08,22.58,1.8,37.63c0.11,2.21-1.01,3.51-3.37,3.53c-5.29,0.06-7.93,0.09-13.22,0.15
					c-2.24,0.03-3.6-1.22-3.71-3.39c-1.17-24.4-2.34-48.8-3.51-73.2c-0.11-2.29,1.13-3.54,3.36-3.73
					C164.53,35.18,167.99,34.89,174.9,34.3z"/>
			</g>
			<g>
				<path class="st1" d="M248.43,53.25c-0.12-2.48-1.36-3.65-3.71-3.49c-6.59,0.44-9.89,0.66-16.48,1.1
					c-2.24,0.15-3.6-1.1-3.71-3.42c-0.26-5.45-0.39-8.18-0.65-13.63c-0.12-2.43,1.12-3.76,3.35-3.95
					c20.07-1.7,40.15-3.41,60.22-5.11c2.35-0.2,3.59,0.99,3.71,3.56c0.28,5.77,0.41,8.65,0.69,14.42c0.12,2.45-0.99,3.94-3.35,4.1
					c-6.59,0.44-9.89,0.66-16.48,1.1c-2.24,0.15-3.47,1.5-3.35,4.02c0.94,19.7,1.89,39.41,2.83,59.11c0.12,2.4-1,3.8-3.36,3.83
					c-5.29,0.06-7.93,0.09-13.22,0.15c-2.24,0.03-3.6-1.33-3.72-3.69C250.29,91.99,249.36,72.62,248.43,53.25z"/>
			</g>
			<g>
				<path class="st1" d="M357.8,83.4c0.43,8.94-0.07,32.94-28.05,33.2c-27.98,0.26-30.73-22.61-31.13-31.14
					c-0.62-12.93-0.93-19.39-1.55-32.32c-0.41-8.53,0.14-31.56,28.01-33.98c27.87-2.42,30.67,21.42,31.1,30.36
					C356.83,63.08,357.15,69.85,357.8,83.4z M336.26,57.83c-0.49-10.27-1.38-16.5-10.09-15.9c-8.71,0.6-9,6.81-8.52,16.93
					c0.36,7.57,0.54,11.35,0.91,18.92c0.49,10.12,1.37,16.28,10.1,16.04c8.73-0.24,9.02-6.52,8.52-16.79
					C336.82,69.35,336.63,65.51,336.26,57.83z"/>
			</g>
		</g>
	</g>
	<g>
		<g>
			<g>
				<path class="st1" d="M86.13,113.19c1.79,2.75,0.04,5.76-3.62,5.8c-5.38,0.06-8.07,0.09-13.46,0.15
					c-1.18,0.01-2.27-0.5-2.78-1.43c-5.31-8.34-7.97-12.47-13.27-20.6c-0.25-0.3-0.61-0.5-0.97-0.48c-1.89,0.06-2.83,0.1-4.71,0.16
					c-2.12,0.07-3.59,1.46-3.5,3.3c0.31,6.47,0.46,9.7,0.77,16.16c0.09,1.84-1.38,3.19-3.51,3.21c-5.29,0.06-7.93,0.09-13.22,0.15
					c-2.12,0.02-3.72-1.26-3.81-3.06c-1.02-21.3-2.04-42.6-3.06-63.89c-0.09-1.8,1.38-3.24,3.5-3.41
					c10.3-0.87,15.46-1.31,25.76-2.19c20.93-1.78,29.79,5.59,30.63,23.03c0.47,9.89-1.9,16.94-7.96,21.19
					c-0.46,0.33-0.55,0.87-0.29,1.38C78.02,100.76,80.72,104.87,86.13,113.19z M45.8,65.16c-2.12,0.14-3.59,1.57-3.5,3.41
					c0.15,3.03,0.22,4.54,0.36,7.57c0.09,1.84,1.68,3.09,3.81,2.98c2.4-0.13,3.6-0.19,6.01-0.31c5.65-0.3,8.45-1.07,8.14-7.53
					c-0.31-6.46-3.16-6.9-8.81-6.52C49.41,64.92,48.2,65,45.8,65.16z"/>
			</g>
			<g>
				<path class="st1" d="M143.51,39.13c2.35-0.2,3.58,0.84,3.69,3.1c0.24,5.08,0.37,7.62,0.61,12.7c0.1,2.16-1.02,3.48-3.37,3.64
					c-11.4,0.76-17.09,1.14-28.49,1.9c-2.24,0.15-3.48,1.33-3.37,3.53c0.07,1.4,0.1,2.11,0.17,3.51c0.1,2.08,1.45,3.22,3.69,3.09
					c7.3-0.42,10.95-0.62,18.25-1.04c2.36-0.13,3.59,0.92,3.7,3.17c0.24,5.03,0.36,7.55,0.6,12.58c0.1,2.13-1.02,3.42-3.38,3.51
					c-7.31,0.28-10.96,0.43-18.27,0.71c-2.24,0.09-3.48,1.23-3.38,3.43c0.07,1.4,0.1,2.11,0.17,3.51c0.1,2.08,1.46,3.25,3.7,3.19
					c11.42-0.33,17.12-0.5,28.54-0.83c2.36-0.07,3.59,1.03,3.7,3.3c0.24,5.08,0.37,7.62,0.61,12.7c0.11,2.27-1.02,3.42-3.38,3.44
					c-19.83,0.22-29.74,0.33-49.57,0.55c-2.24,0.03-3.6-1.14-3.7-3.18c-1.1-22.93-2.2-45.86-3.3-68.79
					c-0.1-2.15,1.14-3.34,3.37-3.52C113.87,41.65,123.75,40.81,143.51,39.13z"/>
			</g>
			<g>
				<path class="st1" d="M176.9,36.3c2-0.17,3.33,0.54,4.25,2.34c7.15,15.06,10.72,22.7,17.89,38.2c0.52,1.05,1.45,0.77,1.4-0.42
					c-0.74-15.35-1.1-23.03-1.84-38.38c-0.11-2.38,1.12-3.68,3.36-3.87c5.27-0.45,7.9-0.67,13.17-1.12c2.35-0.2,3.59,0.91,3.7,3.33
					c1.24,25.81,2.47,51.61,3.71,77.42c0.11,2.3-1.01,3.64-3.37,3.67c-6.94,0.08-10.41,0.12-17.35,0.19
					c-2.01,0.02-3.34-0.79-4.26-2.68c-7.18-15.68-10.76-23.4-17.91-38.63c-0.52-1.03-1.45-0.75-1.4,0.42
					c0.72,15.05,1.08,22.58,1.8,37.63c0.11,2.21-1.01,3.51-3.37,3.53c-5.29,0.06-7.93,0.09-13.22,0.15
					c-2.24,0.03-3.6-1.22-3.71-3.39c-1.17-24.4-2.34-48.8-3.51-73.2c-0.11-2.29,1.13-3.54,3.36-3.73
					C166.53,37.18,169.99,36.89,176.9,36.3z"/>
			</g>
			<g>
				<path class="st1" d="M250.43,55.25c-0.12-2.48-1.36-3.65-3.71-3.49c-6.59,0.44-9.89,0.66-16.48,1.1
					c-2.24,0.15-3.6-1.1-3.71-3.42c-0.26-5.45-0.39-8.18-0.65-13.63c-0.12-2.43,1.12-3.76,3.35-3.95
					c20.07-1.7,40.15-3.41,60.22-5.11c2.35-0.2,3.59,0.99,3.71,3.56c0.28,5.77,0.41,8.65,0.69,14.42c0.12,2.45-0.99,3.94-3.35,4.1
					c-6.59,0.44-9.89,0.66-16.48,1.1c-2.24,0.15-3.47,1.5-3.35,4.02c0.94,19.7,1.89,39.41,2.83,59.11c0.12,2.4-1,3.8-3.36,3.83
					c-5.29,0.06-7.93,0.09-13.22,0.15c-2.24,0.03-3.6-1.33-3.72-3.69C252.29,93.99,251.36,74.62,250.43,55.25z"/>
			</g>
			<g>
				<path class="st1" d="M359.8,85.4c0.43,8.94-0.07,32.94-28.05,33.2c-27.98,0.26-30.73-22.61-31.13-31.14
					c-0.62-12.93-0.93-19.39-1.55-32.32c-0.41-8.53,0.14-31.56,28.01-33.98c27.87-2.42,30.67,21.42,31.1,30.36
					C358.83,65.07,359.15,71.85,359.8,85.4z M338.26,59.83c-0.49-10.27-1.38-16.5-10.09-15.9c-8.71,0.6-9,6.81-8.52,16.93
					c0.36,7.57,0.54,11.35,0.91,18.92c0.49,10.12,1.37,16.28,10.1,16.04c8.73-0.24,9.02-6.52,8.52-16.79
					C338.82,71.35,338.63,67.51,338.26,59.83z"/>
			</g>
		</g>
	</g>
	<g>
		<g>
			<g>
				<path class="st2" d="M66.14,93.2c1.79,2.75,0.04,5.76-3.62,5.8c-5.38,0.06-8.07,0.09-13.46,0.15c-1.18,0.01-2.27-0.5-2.78-1.43
					c-5.31-8.34-7.97-12.47-13.27-20.6c-0.25-0.3-0.61-0.5-0.97-0.48c-1.89,0.06-2.83,0.1-4.71,0.16c-2.12,0.07-3.59,1.46-3.5,3.3
					c0.31,6.47,0.46,9.7,0.77,16.16c0.09,1.84-1.38,3.19-3.51,3.21c-5.29,0.06-7.93,0.09-13.22,0.15c-2.12,0.02-3.72-1.26-3.81-3.06
					C3.05,75.25,2.02,53.95,1,32.66c-0.09-1.8,1.38-3.24,3.5-3.41c10.3-0.87,15.46-1.31,25.76-2.19
					c20.93-1.78,29.79,5.59,30.63,23.03c0.47,9.89-1.9,16.94-7.96,21.19c-0.46,0.33-0.55,0.87-0.29,1.38
					C58.03,80.77,60.73,84.88,66.14,93.2z M25.81,45.17c-2.12,0.14-3.59,1.57-3.5,3.41c0.15,3.03,0.22,4.54,0.36,7.57
					c0.09,1.84,1.68,3.09,3.81,2.98c2.4-0.13,3.6-0.19,6.01-0.31c5.65-0.3,8.45-1.07,8.14-7.53c-0.31-6.46-3.16-6.9-8.81-6.52
					C29.41,44.93,28.21,45.01,25.81,45.17z"/>
				<path class="st1" d="M7.82,100.61c-2.64,0-4.64-1.68-4.75-4.02L0,32.7c-0.11-2.36,1.74-4.23,4.41-4.46l25.76-2.19
					c11.32-0.96,19.3,0.75,24.41,5.22c4.49,3.94,6.88,10.07,7.3,18.75c0.5,10.53-2.24,17.74-8.38,22.06
					c5.37,8.13,8.07,12.24,13.48,20.57h0c1.02,1.57,1.15,3.31,0.37,4.78c-0.85,1.59-2.65,2.55-4.81,2.57l-13.46,0.15
					c-1.59-0.05-3-0.73-3.67-1.95c-5.28-8.29-7.93-12.41-13.23-20.54c-0.01,0.01-0.08-0.03-0.1-0.03l-4.71,0.16
					c-0.85,0.03-1.57,0.32-2.04,0.82c-0.36,0.39-0.53,0.88-0.5,1.43l0.78,16.16c0.05,1.08-0.32,2.1-1.04,2.87
					c-0.83,0.88-2.06,1.37-3.45,1.39l-13.22,0.15C7.86,100.61,7.84,100.61,7.82,100.61z M35.97,27.8c-1.77,0-3.64,0.08-5.63,0.25
					L4.58,30.24C3,30.37,1.94,31.35,2,32.61L5.07,96.5c0.06,1.25,1.19,2.11,2.75,2.11c0.02,0,0.03,0,0.05,0l13.22-0.15
					c0.85-0.01,1.57-0.28,2.02-0.76c0.35-0.37,0.52-0.86,0.5-1.4l-0.78-16.16c-0.05-1.08,0.32-2.1,1.03-2.88
					c0.82-0.9,2.05-1.42,3.44-1.46l4.71-0.16c0.66-0.02,1.32,0.29,1.77,0.85c5.37,8.23,8.03,12.36,13.34,20.71
					c0.35,0.63,1.08,0.96,1.93,0.97l13.46-0.15c1.42-0.02,2.57-0.58,3.07-1.52c0.43-0.81,0.33-1.81-0.28-2.74h0
					c-5.4-8.32-8.1-12.43-13.5-20.54c-0.55-1.07-0.31-2.13,0.53-2.74c5.63-3.95,8.03-10.41,7.55-20.34
					c-0.39-8.11-2.55-13.79-6.62-17.34C49.45,29.45,43.76,27.8,35.97,27.8z M26.22,60.14c-1.26,0-2.41-0.41-3.24-1.16
					c-0.79-0.71-1.25-1.7-1.3-2.77l-0.36-7.57c-0.11-2.41,1.75-4.28,4.43-4.46l6-0.4c3.15-0.21,5.9-0.25,7.73,1.38
					c1.32,1.18,2.01,3.12,2.15,6.09c0.36,7.5-3.54,8.29-9.09,8.58l-6,0.31C26.43,60.14,26.33,60.14,26.22,60.14z M34.23,45.67
					c-0.7,0-1.48,0.04-2.35,0.09l-6,0.4c-1.57,0.1-2.63,1.08-2.57,2.37l0.36,7.57c0.03,0.55,0.25,1.03,0.64,1.39
					c0.51,0.46,1.26,0.69,2.11,0.64l6.01-0.31c5.55-0.29,7.46-0.89,7.2-6.48c-0.12-2.4-0.59-3.9-1.48-4.7
					C37.33,45.91,36.05,45.67,34.23,45.67z"/>
			</g>
			<g>
				<path class="st2" d="M123.52,19.14c2.35-0.2,3.58,0.84,3.69,3.1c0.24,5.08,0.37,7.62,0.61,12.7c0.1,2.16-1.02,3.48-3.37,3.64
					c-11.4,0.76-17.09,1.14-28.49,1.9c-2.24,0.15-3.48,1.33-3.37,3.53c0.07,1.4,0.1,2.11,0.17,3.51c0.1,2.08,1.45,3.22,3.69,3.09
					c7.3-0.42,10.95-0.62,18.25-1.04c2.36-0.13,3.59,0.92,3.7,3.17c0.24,5.03,0.36,7.55,0.6,12.58c0.1,2.13-1.02,3.42-3.38,3.51
					c-7.31,0.28-10.96,0.43-18.27,0.71c-2.24,0.09-3.48,1.23-3.38,3.43c0.07,1.4,0.1,2.11,0.17,3.51c0.1,2.08,1.46,3.25,3.7,3.19
					c11.42-0.33,17.12-0.5,28.54-0.83c2.36-0.07,3.59,1.03,3.7,3.3c0.24,5.08,0.37,7.62,0.61,12.7c0.11,2.27-1.02,3.42-3.38,3.44
					c-19.83,0.22-29.74,0.33-49.57,0.55c-2.24,0.03-3.6-1.14-3.7-3.18c-1.1-22.93-2.2-45.86-3.3-68.79
					c-0.1-2.15,1.14-3.34,3.37-3.52C93.88,21.66,103.76,20.82,123.52,19.14z"/>
				<path class="st1" d="M77.67,99.83c-2.74,0-4.5-1.58-4.63-4.14l-3.3-68.79c-0.12-2.62,1.48-4.33,4.29-4.57l49.4-4.19
					c1.48-0.12,2.64,0.18,3.47,0.9c0.8,0.7,1.24,1.76,1.31,3.15l0.61,12.7c0.13,2.74-1.48,4.5-4.3,4.68l-28.49,1.9
					c-2.26,0.15-2.49,1.4-2.44,2.48l0.17,3.51c0.03,0.72,0.25,1.26,0.64,1.62c0.55,0.5,1.39,0.56,1.99,0.52l18.25-1.04
					c1.47-0.09,2.64,0.25,3.46,0.98c0.79,0.71,1.23,1.77,1.29,3.13l0.6,12.58c0.06,1.34-0.27,2.42-1.01,3.22
					c-0.76,0.83-1.88,1.28-3.33,1.33l-18.27,0.71c-0.91,0.04-1.57,0.27-1.96,0.69c-0.34,0.38-0.5,0.95-0.46,1.69l0.17,3.51
					c0.07,1.53,0.98,2.31,2.67,2.24l28.54-0.83c2.93-0.08,4.59,1.43,4.73,4.25l0.61,12.7c0.07,1.39-0.27,2.49-1,3.26
					c-0.75,0.8-1.88,1.21-3.36,1.23l-49.57,0.55C77.73,99.83,77.7,99.83,77.67,99.83z M124.07,20.12c-0.15,0-0.3,0.01-0.47,0.02
					l-49.4,4.19c-2.3,0.2-2.51,1.51-2.46,2.48l3.3,68.79c0.07,1.5,1.01,2.24,2.69,2.23l49.57-0.55c0.92-0.01,1.57-0.21,1.93-0.6
					c0.34-0.37,0.5-0.97,0.46-1.79l-0.61-12.7c-0.08-1.72-0.88-2.39-2.67-2.35l-28.54,0.83c-2.82,0.05-4.6-1.51-4.72-4.14
					l-0.17-3.51c-0.06-1.3,0.27-2.36,0.99-3.14c0.76-0.83,1.89-1.28,3.35-1.33l18.27-0.71c0.9-0.04,1.55-0.27,1.93-0.69
					c0.36-0.39,0.52-0.99,0.48-1.78l-0.6-12.58c-0.04-0.82-0.25-1.4-0.63-1.74c-0.41-0.37-1.09-0.53-2.01-0.48L96.5,51.61
					c-1.41,0.09-2.6-0.28-3.44-1.03c-0.79-0.71-1.24-1.75-1.3-3.01l-0.17-3.51c-0.13-2.67,1.48-4.38,4.31-4.57l28.49-1.9
					c1.77-0.12,2.52-0.92,2.44-2.59l-0.61-12.7c-0.04-0.83-0.25-1.41-0.63-1.74C125.25,20.26,124.75,20.12,124.07,20.12z"/>
			</g>
			<g>
				<path class="st2" d="M156.91,16.31c2-0.17,3.33,0.54,4.25,2.34c7.15,15.06,10.72,22.7,17.89,38.2c0.52,1.05,1.45,0.77,1.4-0.42
					c-0.74-15.35-1.1-23.03-1.84-38.38c-0.11-2.38,1.12-3.68,3.36-3.87c5.27-0.45,7.9-0.67,13.17-1.12c2.35-0.2,3.59,0.91,3.7,3.33
					c1.24,25.81,2.47,51.61,3.71,77.42c0.11,2.3-1.01,3.64-3.37,3.67c-6.94,0.08-10.41,0.12-17.35,0.19
					c-2.01,0.02-3.34-0.79-4.26-2.68c-7.18-15.68-10.76-23.4-17.91-38.63c-0.52-1.03-1.45-0.75-1.4,0.42
					c0.72,15.05,1.08,22.58,1.8,37.63c0.11,2.21-1.01,3.51-3.37,3.53c-5.29,0.06-7.93,0.09-13.22,0.15
					c-2.24,0.03-3.6-1.22-3.71-3.39c-1.17-24.4-2.34-48.8-3.51-73.2c-0.11-2.29,1.13-3.54,3.36-3.73
					C146.54,17.19,150,16.89,156.91,16.31z"/>
				<path class="st1" d="M143.41,99.1c-2.74,0-4.51-1.66-4.64-4.34l-3.51-73.2c-0.13-2.75,1.47-4.54,4.28-4.78l17.29-1.47
					c2.44-0.2,4.14,0.74,5.22,2.89c7,14.76,10.52,22.26,17.34,37l-1.78-37.11c-0.14-2.84,1.46-4.67,4.27-4.91l13.17-1.12
					c1.44-0.12,2.58,0.18,3.41,0.91c0.84,0.74,1.3,1.87,1.37,3.37l3.71,77.42c0.07,1.47-0.29,2.64-1.07,3.47
					c-0.77,0.81-1.87,1.23-3.28,1.25l-17.35,0.19c-0.03,0-0.06,0-0.09,0c-2.36,0-4.02-1.06-5.08-3.24
					C169.65,80.09,166.13,72.5,159.32,58l1.74,36.37c0.07,1.4-0.28,2.53-1.04,3.33c-0.77,0.81-1.88,1.23-3.32,1.25l-13.22,0.15
					C143.46,99.1,143.43,99.1,143.41,99.1z M157,17.3l-17.29,1.47c-1.75,0.15-2.53,1-2.45,2.69l3.51,73.2
					c0.08,1.64,0.98,2.39,2.7,2.44l13.22-0.15c0.87-0.01,1.5-0.22,1.88-0.62c0.37-0.4,0.54-1.02,0.5-1.87l-1.8-37.63
					c-0.05-1.03,0.44-1.84,1.24-2.05c0.61-0.16,1.5,0.04,2.05,1.13c7.2,15.33,10.72,22.91,17.93,38.67c0.73,1.5,1.71,2.08,3.34,2.09
					l17.35-0.19c0.85-0.01,1.47-0.22,1.85-0.62c0.4-0.42,0.58-1.09,0.53-2l-3.71-77.42c-0.04-0.94-0.28-1.6-0.7-1.96
					c-0.4-0.35-1.04-0.5-1.92-0.42l-13.17,1.12c-1.75,0.15-2.53,1.05-2.44,2.82l1.84,38.38c0.06,1.27-0.63,1.91-1.24,2.07
					c-0.61,0.15-1.5-0.05-2.05-1.15c-7.21-15.59-10.72-23.09-17.9-38.22C159.55,17.69,158.6,17.17,157,17.3L157,17.3z"/>
			</g>
			<g>
				<path class="st2" d="M230.44,35.26c-0.12-2.48-1.36-3.65-3.71-3.49c-6.59,0.44-9.89,0.66-16.48,1.1
					c-2.24,0.15-3.6-1.1-3.71-3.42c-0.26-5.45-0.39-8.18-0.65-13.63c-0.12-2.43,1.12-3.76,3.35-3.95
					c20.07-1.7,40.15-3.41,60.22-5.11c2.35-0.2,3.59,0.99,3.71,3.56c0.28,5.77,0.41,8.65,0.69,14.42c0.12,2.45-0.99,3.94-3.35,4.1
					c-6.59,0.44-9.89,0.66-16.48,1.1c-2.24,0.15-3.47,1.5-3.35,4.02c0.94,19.7,1.89,39.41,2.83,59.11c0.12,2.4-1,3.8-3.36,3.83
					c-5.29,0.06-7.93,0.09-13.22,0.15c-2.24,0.03-3.6-1.33-3.72-3.69C232.29,74,231.37,54.63,230.44,35.26z"/>
				<path class="st1" d="M236.88,98.06c-2.74,0-4.52-1.77-4.66-4.64l-2.79-58.12c-0.05-0.99-0.29-1.69-0.73-2.08
					c-0.4-0.36-1.05-0.51-1.91-0.46l-16.48,1.1c-1.35,0.09-2.51-0.26-3.35-1.01c-0.86-0.77-1.35-1.93-1.42-3.36l-0.65-13.63
					c-0.14-2.89,1.46-4.76,4.27-4.99l60.22-5.11c1.41-0.12,2.53,0.19,3.35,0.91c0.88,0.77,1.37,1.98,1.44,3.6l0.69,14.42
					c0.15,3.03-1.45,4.96-4.28,5.15l-16.48,1.1c-1.74,0.12-2.51,1.06-2.42,2.98l2.83,59.11c0.07,1.55-0.3,2.78-1.11,3.63
					c-0.76,0.81-1.85,1.23-3.24,1.24l-13.22,0.15C236.93,98.06,236.91,98.06,236.88,98.06z M231.43,35.21l2.79,58.12
					c0.09,1.83,1.02,2.68,2.71,2.73l13.22-0.15c0.82-0.01,1.43-0.22,1.81-0.62c0.42-0.45,0.61-1.18,0.57-2.17l-2.83-59.11
					c-0.14-2.99,1.46-4.88,4.28-5.07l16.48-1.1c1.1-0.07,2.54-0.47,2.41-3.05l-0.69-14.42c-0.05-1.06-0.31-1.79-0.77-2.19
					c-0.4-0.35-1.02-0.5-1.87-0.42l-60.22,5.11c-1.75,0.15-2.53,1.07-2.44,2.91l0.65,13.63c0.03,0.61,0.19,1.45,0.76,1.96
					c0.44,0.39,1.08,0.56,1.89,0.5l16.48-1.1c1.41-0.09,2.56,0.23,3.38,0.96C230.89,32.49,231.36,33.66,231.43,35.21L231.43,35.21z"
					/>
			</g>
			<g>
				<path class="st2" d="M339.81,65.41c0.43,8.94-0.07,32.94-28.05,33.2c-27.98,0.26-30.73-22.61-31.13-31.14
					c-0.62-12.93-0.93-19.39-1.55-32.32c-0.41-8.53,0.14-31.56,28.01-33.98c27.87-2.42,30.67,21.42,31.1,30.36
					C338.84,45.08,339.16,51.86,339.81,65.41z M318.27,39.84c-0.49-10.27-1.38-16.5-10.09-15.9c-8.71,0.6-9,6.81-8.52,16.93
					c0.36,7.57,0.54,11.35,0.91,18.92c0.49,10.12,1.37,16.28,10.1,16.04c8.73-0.24,9.02-6.52,8.52-16.79
					C318.83,51.36,318.64,47.52,318.27,39.84z"/>
				<path class="st1" d="M311.3,99.61c-19.44,0-30.68-11.38-31.67-32.09l-1.55-32.32c-1-20.88,9.27-33.32,28.92-35.02
					c9.28-0.81,16.74,1.18,22.15,5.92c6.1,5.33,9.48,13.88,10.03,25.39l1.62,33.87c0.55,11.52-1.99,20.34-7.55,26.23
					c-4.94,5.23-12.17,7.92-21.49,8.01C311.62,99.61,311.46,99.61,311.3,99.61z M310.9,2c-1.2,0-2.44,0.05-3.72,0.17
					c-23.6,2.05-27.76,19.04-27.1,32.93l1.55,32.32c0.66,13.8,6.36,30.19,29.66,30.19c0.16,0,0.31,0,0.47,0
					c8.76-0.08,15.5-2.57,20.05-7.39c5.18-5.48,7.53-13.81,7.01-24.77l-1.62-33.87c-0.53-10.95-3.67-19.02-9.35-23.98
					C323.58,3.88,317.9,2,310.9,2z M310.2,76.84c-9.82,0-10.21-8.26-10.63-17l-0.91-18.92c-0.43-8.88-0.83-17.27,9.45-17.98
					c3.15-0.22,5.53,0.41,7.23,1.93c3.11,2.76,3.6,8.16,3.93,14.92l0.92,19.2c0.32,6.76,0.35,12.18-2.48,15.23
					c-1.55,1.67-3.85,2.53-7.01,2.61C310.53,76.84,310.36,76.84,310.2,76.84z M309.28,24.9c-0.33,0-0.68,0.01-1.03,0.04
					c-7.54,0.52-8.1,5.24-7.59,15.89l0.91,18.92c0.51,10.65,1.53,15.3,9.07,15.09c2.6-0.07,4.44-0.72,5.6-1.97
					c2.3-2.48,2.25-7.48,1.95-13.77l-0.92-19.2c-0.3-6.29-0.74-11.27-3.26-13.52C312.91,25.38,311.36,24.9,309.28,24.9z"/>
			</g>
		</g>
	</g>
</g>
<polygon class="st1" points="4.07,99.06 25.01,118.59 26.8,115.07 12.64,101.06 "/>
<polygon class="st1" points="46.03,99.01 67.06,118.57 67.85,113.09 57.09,103.4 47.43,99.01 "/>
<polygon class="st1" points="71.97,90.79 72.74,93.82 74.4,93.01 73.45,90.01 "/>
<polygon class="st1" points="78.74,101.87 94.88,117.82 96.59,113.61 89.44,106.24 80.73,100.82 77.31,99.34 77.88,101.61 "/>
<polygon class="st1" points="150.52,106.91 160.76,117.17 164.08,114.83 152.53,105.54 "/>
<path class="st1" d="M179.28,98.1l18.81,17.78l0.24-5.29c0,0-6.77-9.86-7-10.05c-0.22-0.19-12.05-3.08-12.05-3.08V98.1z"/>
<path class="st1" d="M234,97.18l20.34,18.98c0,0,0.62-3.84,0.55-4.12s-11.76-10.66-12.17-10.98c-0.42-0.32-6.24-3.17-6.24-3.17
	l-1.77-0.71H234z"/>
<path class="st1" d="M273.17,7.14l7.98,9.2v1.61l-2.72-0.77l-3.38-4.64c0,0-2.06-2.88-1.88-3.09S273.17,7.14,273.17,7.14z"/>
<polygon class="st1" points="198.46,12.98 205.15,21.32 203.56,23.38 199.46,19.41 198.87,15.59 "/>
<polygon class="st1" points="160.75,16.45 178.44,35.51 174.23,35.51 166.3,27.56 162.09,19.8 "/>
<path class="st1" d="M127.29,19.45l8.35,9.96l-0.8,1.21l-4.63-1.59c0,0-2.85-4.54-2.92-4.64C127.21,24.29,127.29,19.45,127.29,19.45
	z"/>
<path class="st1" d="M219.17,43.59l11.29,13.13v-5.35c0,0-3.53-6.62-4.19-7.19C225.62,43.6,219.17,43.59,219.17,43.59z"/>
<path class="st1" d="M127.39,59.72l10.22,10.76l-3.84,1.36l-4.37-4.08l-4.67-5.2c0,0,1.77-4,1.96-4.03S127.39,59.72,127.39,59.72z"
	/>
<polygon class="st1" points="136.69,87.33 137.61,90.71 139.76,87.77 138.22,85.17 "/>
</svg>
