<?xml version="1.0"?>
<svg xmlns="http://www.w3.org/2000/svg" height="512px" viewBox="0 0 512 512" width="512px" class=""><g><path d="m136 146c5.519531 0 10-4.480469 10-10 0-5.480469-4.445312-10-10-10-5.519531 0-10 4.480469-10 10 0 5.511719 4.484375 10 10 10zm0 0" data-original="#000000" class="active-path" data-old_color="##BCBCB" fill="#BCBCBC"/><path d="m502 246h-20.246094c-5.324218-113.410156-101.796875-210.402344-215.753906-215.753906v-20.246094c0-5.523438-4.476562-10-10-10s-10 4.476562-10 10v20.246094c-113.71875 5.34375-210.417969 102.144531-215.753906 215.753906h-20.246094c-5.523438 0-10 4.476562-10 10s4.476562 10 10 10h20.246094c5.328125 113.410156 101.796875 210.402344 215.753906 215.753906v20.246094c0 5.523438 4.476562 10 10 10s10-4.476562 10-10v-20.246094c113.378906-5.324218 210.402344-101.765625 215.753906-215.753906h20.246094c5.523438 0 10-4.476562 10-10s-4.476562-10-10-10zm-40.269531 0h-23.023438c-5.207031-91.449219-81.257812-167.5-172.707031-172.707031v-23.023438c102.199219 5.441407 190.289062 93.53125 195.730469 195.730469zm-215.730469-195.730469v23.105469c-27.359375 1.921875-55.574219 11.703125-83.984375 29.164062-4.707031 2.894532-6.175781 9.050782-3.285156 13.757813 2.894531 4.707031 9.050781 6.175781 13.757812 3.28125 25.117188-15.4375 49.789063-24.195313 73.511719-26.136719v22.558594c0 5.523438 4.480469 10 10 10 5.523438 0 10-4.476562 10-10v-22.667969c80.601562 5.15625 147.511719 72.066407 152.667969 152.667969h-22.667969c-5.523438 0-10 4.476562-10 10s4.476562 9.988281 10 9.988281h22.667969c-5.15625 80.605469-72.066407 147.523438-152.667969 152.679688v-22.667969c0-5.523438-4.476562-10-10-10s-10 4.476562-10 10v22.667969c-80.601562-5.15625-147.511719-72.066407-152.667969-152.667969h22.667969c5.523438 0 10-4.476562 10-10s-4.476562-10-10-10h-22.585938c1.9375-23.695312 10.714844-48.375 26.164063-73.515625 2.894531-4.703125 1.425781-10.863281-3.28125-13.753906-4.703125-2.890625-10.863281-1.421875-13.757813 3.28125-17.464843 28.417969-27.25 56.621093-29.179687 83.988281h-23.089844c5.441407-102.199219 93.53125-190.289062 195.730469-195.730469zm-195.730469 215.730469h23.023438c5.207031 91.449219 81.257812 167.5 172.707031 172.707031v23.023438c-102.199219-5.441407-190.289062-93.53125-195.730469-195.730469zm215.730469 195.730469v-23.039063c88.472656-5.21875 167.484375-77.714844 172.71875-172.703125h23.011719c-5.441407 102.203125-93.53125 190.300781-195.730469 195.742188zm0 0" data-original="#000000" class="active-path" data-old_color="##BCBCB" fill="#BCBCBC"/><path d="m176 266h10.726562c4.398438 30.609375 28.664063 54.875 59.273438 59.273438v10.726562c0 5.523438 4.476562 10 10 10s10-4.476562 10-10v-10.726562c30.609375-4.398438 54.875-28.664063 59.273438-59.273438h10.726562c5.523438 0 10-4.476562 10-10s-4.476562-10-10-10h-10.726562c-4.398438-30.609375-28.664063-54.875-59.273438-59.273438v-10.726562c0-5.523438-4.476562-10-10-10s-10 4.476562-10 10v10.726562c-30.609375 4.398438-54.875 28.664063-59.273438 59.273438h-10.726562c-5.523438 0-10 4.476562-10 10s4.476562 10 10 10zm70-58.992188v8.992188c0 5.523438 4.476562 10 10 10s10-4.476562 10-10v-8.992188c19.5625 3.984376 35.007812 19.429688 38.992188 38.992188h-8.992188c-5.523438 0-10 4.476562-10 10s4.476562 9.988281 10 9.988281h8.992188c-3.984376 19.566407-19.429688 35.019531-38.992188 39.003907v-8.992188c0-5.523438-4.476562-10-10-10s-10 4.476562-10 10v8.992188c-19.5625-3.984376-35.007812-19.429688-38.992188-38.992188h8.992188c5.523438 0 10-4.476562 10-10s-4.476562-10-10-10h-8.992188c3.984376-19.5625 19.429688-35.007812 38.992188-38.992188zm0 0" data-original="#000000" class="active-path" data-old_color="##BCBCB" fill="#BCBCBC"/></g> </svg>
