<?xml version="1.0" encoding="utf-8"?>
<!-- Generator: Adobe Illustrator 23.0.1, SVG Export Plug-In . SVG Version: 6.00 Build 0)  -->
<svg version="1.1" id="Layer_1" xmlns="http://www.w3.org/2000/svg" xmlns:xlink="http://www.w3.org/1999/xlink" x="0px" y="0px"
	 viewBox="0 0 57 46.5" style="enable-background:new 0 0 57 46.5;" xml:space="preserve">
<g>
	<path d="M33.2,35.1c-1.3-1.3-2.9-2-4.7-2c-1.8,0-3.5,0.7-4.7,2c-1.3,1.3-2,2.9-2,4.7c0,1.8,0.7,3.5,2,4.7c1.3,1.3,2.9,2,4.7,2
		c0,0,0,0,0,0c1.8,0,3.5-0.7,4.7-2c1.3-1.3,2-2.9,2-4.7C35.2,38,34.5,36.3,33.2,35.1z M31.6,42.8C31.6,42.8,31.6,42.9,31.6,42.8
		c-0.8,0.8-1.9,1.3-3.1,1.3c-1.2,0-2.2-0.5-3.1-1.3c-0.8-0.8-1.3-1.9-1.3-3.1c0-1.2,0.5-2.2,1.3-3.1c0.8-0.8,1.9-1.3,3.1-1.3
		c1.2,0,2.2,0.5,3.1,1.3c0.8,0.8,1.3,1.9,1.3,3.1C32.8,41,32.4,42,31.6,42.8z"/>
	<path d="M1.2,13.7c0.3,0,0.6-0.1,0.8-0.3C16.6-1.3,40.4-1.3,55,13.3c0.5,0.5,1.2,0.5,1.7,0s0.5-1.2,0-1.7
		C41.1-3.9,15.9-3.9,0.3,11.6c-0.5,0.5-0.5,1.2,0,1.7C0.6,13.6,0.9,13.7,1.2,13.7z"/>
	<path d="M48,21.5c0.3,0,0.6-0.1,0.8-0.3c0.5-0.5,0.5-1.2,0-1.7C43.4,14,36.2,11,28.5,11c-7.7,0-14.9,3-20.3,8.4
		c-0.5,0.5-0.5,1.2,0,1.7s1.2,0.5,1.7,0c5-5,11.6-7.7,18.7-7.7c7.1,0,13.7,2.7,18.7,7.7C47.4,21.4,47.7,21.5,48,21.5z"/>
	<path d="M40.2,29.3c0.3,0,0.6-0.1,0.8-0.3c0.5-0.5,0.5-1.2,0-1.7c-6.9-6.9-18.2-6.9-25.1,0c-0.5,0.5-0.5,1.2,0,1.7
		c0.5,0.5,1.2,0.5,1.7,0c6-6,15.7-6,21.7,0C39.6,29.2,39.9,29.3,40.2,29.3z"/>
</g>
</svg>
